<svg id="Layer_1" data-name="Layer 1" xmlns="http://www.w3.org/2000/svg" viewBox="0 0 1500 665"><defs><style>.cls-1{fill:#fff;}.cls-2{fill:#052b63;}</style></defs><title>fotter</title><path class="cls-1" d="M245,226.37c-2.41-1-5.11-.19-6,1.9s.31,4.65,2.72,5.69,5.11.19,6-1.9S247.44,227.41,245,226.37Z" transform="translate(0 1)"/><rect class="cls-2" width="1500" height="665"/><path class="cls-1" d="M244,180.82c-2.41-1-5.11-.19-6,1.9s.31,4.65,2.72,5.69,5.11.19,6-1.9S246.44,181.87,244,180.82Z" transform="translate(0 1)"/><path class="cls-1" d="M197.78,316.84l-10.28-4.46,2.63-6.07c2.72-6.28.33-13.39-5.34-15.85L174.52,286l.28-.65a12.42,12.42,0,0,0,11.51-7.76,25.33,25.33,0,0,0,.94-18.18l-1-3.1a3.48,3.48,0,0,0-4.85-2.1l-3,1.35a25.33,25.33,0,0,0-12.64,13.11,12.42,12.42,0,0,0,2.2,13.71l-.28.65-10.28-4.46c-5.67-2.46-12.5.65-15.22,6.93l-2.63,6.07-27.41-11.89,30.63-70.61,22.33,9.68c3,12.79,11.1,22.86,22.48,27.8s24.28,4,35.66-2.58l5.19,2.25a4.16,4.16,0,0,0,3.29-7.59l-.68-.3a49.15,49.15,0,0,0,12.34-17.2,49.72,49.72,0,0,0,3.8-14.12v-.09a44.61,44.61,0,0,0-8.26-31.87l2-4.6,3.43,1.49a4.16,4.16,0,0,0,3.29-7.59l-3.43-1.49,7.58-17.46,3.43,1.49a4.16,4.16,0,0,0,3.29-7.59l-41.12-17.84a4.16,4.16,0,0,0-3.29,7.59l3.43,1.49L210,148l-34.27-14.86,9.22-21.26a4,4,0,0,0-1.78-5.28l-13.71-5.95a4,4,0,0,0-5.07,2.31l-9.22,21.26-6.85-3,1.65-3.8a3.75,3.75,0,1,0-6.85-3l-6.59,15.19a3.75,3.75,0,1,0,6.85,3l1.65-3.8,6.85,3-26.35,60.74-6.85-3,1.65-3.8a3.75,3.75,0,1,0-6.85-3L106.84,198a3.75,3.75,0,1,0,6.85,3l1.65-3.8,6.85,3-30.8,71c-8.58-1.62-17.8,3.49-21.77,12.66a4,4,0,0,0,1.78,5.28l130.21,56.48a4,4,0,0,0,5.07-2.31C211.23,332.77,207.25,320.95,197.78,316.84ZM190.86,239a31.41,31.41,0,0,1-16.1-16l38.81,16.83A31.41,31.41,0,0,1,190.86,239Zm45.66-20.79a39.76,39.76,0,0,1-13.43,16.73L171.8,212.65a39.76,39.76,0,0,1,3-21.24,41.19,41.19,0,0,1,3.34-6.19,22,22,0,0,0,8.64,7.2c6.74,2.92,14,.89,14.28.8.05,0,5.15-1.39,9.57.52s6.9,6.58,6.91,6.62c.14.28,3.62,7,10.35,9.89a21.77,21.77,0,0,0,10.77,1.43A41.26,41.26,0,0,1,236.51,218.16Zm-29.6-50a4.18,4.18,0,0,0,3.56-2.59l13.91-32.06,20.56,8.92L231,174.48a4.18,4.18,0,0,0,.54,4.37,35.8,35.8,0,0,1,8.29,24.53,15.7,15.7,0,0,1-8.64-.72c-4.42-1.92-6.9-6.58-6.91-6.62-.14-.28-3.62-7-10.35-9.89s-14-.89-14.28-.8c-.05,0-5.15,1.39-9.57-.52a15.92,15.92,0,0,1-6.62-6.11A35.81,35.81,0,0,1,206.91,168.15Zm-34.52-27.42,34.27,14.86-2,4.6a44.63,44.63,0,0,0-28.76,15.57l-.07.09,0,0A49.75,49.75,0,0,0,168,188.44a49.15,49.15,0,0,0-4.12,20.77L146,201.47Zm7.89,122.6a16.71,16.71,0,0,1-.82,11.28,3.75,3.75,0,1,1-6.85-3A16.71,16.71,0,0,1,180.28,263.33ZM149,288.47a4,4,0,0,1,5.07-2.31l27.41,11.89a4,4,0,0,1,1.78,5.28l-2.63,6.07-34.27-14.86Zm20.53-178.74,6.85,3-7.58,17.46-6.85-3Zm-10.87,25.06,6.85,3L139.19,198.5l-6.85-3ZM129,203.12l6.85,3-30.63,70.61-6.85-3ZM78.71,283.23c3.33-3.81,8.52-5.33,13-3.39l102.8,44.59c4.55,2,6.9,6.87,6.4,11.8Z" transform="translate(0 1)"/><path class="cls-1" d="M227.56,218.79l-17.47-7.58c-2.41-1-5.11-.19-6,1.9s.31,4.64,2.72,5.69l17.47,7.58c2.41,1,5.11.19,6-1.9S230,219.84,227.56,218.79Z" transform="translate(0 1)"/><path class="cls-1" d="M743.26,70.93a8.94,8.94,0,1,0,8.68,8.94A8.82,8.82,0,0,0,743.26,70.93Zm0,12.17a3.23,3.23,0,1,1,3.14-3.23A3.19,3.19,0,0,1,743.26,83.1Z" transform="translate(0 1)"/><path class="cls-1" d="M755.08,46.59a8.94,8.94,0,1,0,8.68,8.94A8.82,8.82,0,0,0,755.08,46.59Zm0,12.17a3.23,3.23,0,1,1,3.14-3.23A3.19,3.19,0,0,1,755.08,58.76Z" transform="translate(0 1)"/><path class="cls-1" d="M778.73,89.19A8.75,8.75,0,0,0,770.3,96a8.42,8.42,0,0,0-3.39-.71,8.94,8.94,0,1,0,8.43,11.08,8.42,8.42,0,0,0,3.39.71,8.94,8.94,0,0,0,0-17.88Zm-11.82,18.26a3.23,3.23,0,1,1,3.14-3.23A3.19,3.19,0,0,1,766.91,107.44Zm11.82-6.09a3.23,3.23,0,1,1,3.14-3.23A3.19,3.19,0,0,1,778.73,101.36Z" transform="translate(0 1)"/><path class="cls-1" d="M867.41,43.36H787.23V37.27H769.86V79.49h17.37V49.06h38L807.14,67.7H796.47v5.7h70.94a15,15,0,0,0,0-30ZM781.69,73.78h-6.28V43h6.28Zm85.72-6.09H815l18.1-18.64h34.32a9.32,9.32,0,0,1,0,18.64Z" transform="translate(0 1)"/><rect class="cls-1" x="837.85" y="59.57" width="5.91" height="5.7"/><rect class="cls-1" x="861.49" y="29.49" width="5.91" height="5.7"/><path class="cls-1" d="M707.94,232H837.7l-50.47-64.9V149.85h-5.54v19.26l16.11,20.68H787a8.6,8.6,0,0,0-16.45,0H752.13v5.7H770.5a8.6,8.6,0,0,0,16.45,0h15.27l23.94,30.81H719.47l44.11-57.19V140.72h35.47V122.85H746.22v17.88H758V167.1Zm70.79-36.32a3.23,3.23,0,1,1,3.14-3.23A3.19,3.19,0,0,1,778.73,195.68Zm-27-60.66v-6.47h41.75V135Z" transform="translate(0 1)"/><path class="cls-1" d="M758,174.72a12,12,0,1,0,11.64,12A11.83,11.83,0,0,0,758,174.72ZM758,193a6.28,6.28,0,1,1,6.1-6.28A6.19,6.19,0,0,1,758,193Z" transform="translate(0 1)"/><rect class="cls-1" x="790.55" y="191.12" width="5.91" height="5.7"/><rect class="cls-1" x="761" y="178.61" width="5.91" height="5.7"/><path class="cls-1" d="M215,459.92l-32.85-31.19a3.45,3.45,0,0,0-4.7,0l-13.12,12.46a3,3,0,0,0,0,4.47l1.56,1.48-16.52,15.68c-25.32-12.06-56.56-7.37-76.81,11.77l-.11.1c-26,24.65-26,64.75,0,89.4A69.24,69.24,0,0,0,166.7,564h0c20.18-19.22,25.12-48.9,12.42-73l16.52-15.68,1.56,1.48a3.45,3.45,0,0,0,4.7,0L215,464.39A3,3,0,0,0,215,459.92ZM77.17,559.61c-22.68-21.53-23.35-56.17-2-78.46,5.11,3.69,9.76,4.42,13.93,5.07,4.64.73,8.64,1.35,13.52,6s5.53,8.43,6.28,12.83c.82,4.79,1.75,10.21,8.15,16.28s12.1,7,17.15,7.73c4.63.72,8.63,1.33,13.51,6s5.54,8.44,6.3,12.84c.71,4.11,1.5,8.68,5.74,13.73C136.24,581.77,99.83,581.12,77.17,559.61Zm95.52-71.39a3,3,0,0,0-.56,3.76c12.15,21,8.88,47.18-7.68,65-2.7-3.49-3.28-6.64-3.89-10.16-.83-4.78-1.76-10.21-8.16-16.29s-12.1-7-17.14-7.73c-4.63-.72-8.63-1.33-13.51-6s-5.53-8.43-6.28-12.83c-.82-4.79-1.75-10.21-8.15-16.28s-12.1-7-17.14-7.75c-3.54-.55-6.69-1.08-10.15-3.32a62.76,62.76,0,0,1,68.39-7.21,3.47,3.47,0,0,0,4-.53l18.25-17.33,20.33,19.3Zm26.86-18.08L171.4,443.42l8.42-8L208,462.16Z" transform="translate(0 1)"/><g id="Compound_Medicine" data-name="Compound Medicine"><path class="cls-1" d="M763.15,531.32a12.85,12.85,0,0,0-10.74,1.55l-13.93,9a21,21,0,0,0-.33-22.18l-11.76-18.42a3.47,3.47,0,0,0-.3-.4L715,483.53l-3.71-19.09c5-3.16,6.59-10.27,3.52-15.88a10.73,10.73,0,0,0-11.33-5.76l-20.88,4.06c-5.75,1.11-9.43,7.14-8.21,13.49a11.69,11.69,0,0,0,9.06,9.5l3.71,19.09-7.92,42.19a21,21,0,0,0,.2,8.48h-7.63a3.17,3.17,0,0,0-1.76.52l-21,13.54-1.89-3.38a3.46,3.46,0,0,0-4.9-1.44h0l-24.12,15.58a4,4,0,0,0-1.13,5.32h0l30.26,54a3.46,3.46,0,0,0,4.9,1.44h0l24.11-15.58a4,4,0,0,0,1.13-5.32h0l-1.89-3.37,2-1.27,21.39,3.56a3.27,3.27,0,0,0,2.3-.48l66.31-42.85c6.66-4.31,8.66-13.84,4.48-21.29a15.17,15.17,0,0,0-8.86-7.25Zm-111.7,85.16L625,569.23l18.1-11.69,1.89,3.38h0l1.45,2.59,23.13,41.27Zm42.82-128.08-3.73-19.18,13.92-2.7,3.73,19.18a4.26,4.26,0,0,0,.59,1.48l7.39,11.55a25.81,25.81,0,0,0-4.16.48,22.37,22.37,0,0,0-8.93,3.64,16.33,16.33,0,0,1-6.69,2.74,16,16,0,0,1-5.09.28l3-15.88A4.26,4.26,0,0,0,694.28,488.39Zm-10.19-33.85L705,450.48a3.93,3.93,0,0,1,1.49,7.67l-20.88,4.06a3.93,3.93,0,0,1-1.49-7.67ZM686.21,533l3.66-19.46a22,22,0,0,0,8-.25,22.48,22.48,0,0,0,9-3.65,18.38,18.38,0,0,1,13.83-2.69l.86.14,10.84,17c3.43,5.29,2.38,12.47-2.33,16a9.78,9.78,0,0,1-2.53,1.38,13.52,13.52,0,0,0-6.63-1.8H686.75A12.58,12.58,0,0,1,686.21,533Zm80.7,15.41a7.4,7.4,0,0,1-3.16,4.73l-65.26,42.15-21.39-3.56a3.23,3.23,0,0,0-2.3.48l-3,1.95-18.91-33.75,20.14-13,48.12,0a7.25,7.25,0,0,1,6.3,3.9,5.4,5.4,0,0,1,.43.91,2,2,0,0,0,.13.37,7.84,7.84,0,0,1,.53,2.59c.13,4.3-2.93,7.79-6.85,7.81H681l.26,7.79h40.65c7.86,0,14-7,13.7-15.64a17.69,17.69,0,0,0-.25-2.09l20.81-13.45c3.32-2.16,7.72-.9,9.82,2.83a8.56,8.56,0,0,1,.91,5.94Z" transform="translate(0 1)"/><rect class="cls-1" x="698.94" y="526.69" width="7.09" height="7.82" transform="translate(-88.31 144.74) rotate(-11)"/><rect class="cls-1" x="711.36" y="516.31" width="7.09" height="7.82" transform="translate(-86.11 146.92) rotate(-11)"/><path class="cls-1" d="M795.24,385.36A14,14,0,0,0,785,380.8H720.38c-2.17-6.07-8.37-9.24-13.83-7.08a11.19,11.19,0,0,0-6.71,11l.78,23.38c.17,6.44,5.08,11.69,11,11.73a10.3,10.3,0,0,0,9.86-7.84h64.65c7.86,0,14-7,13.7-15.59a16.92,16.92,0,0,0-4.53-11ZM721.72,401.5l0-1-.4-11.92h34.19a93.43,93.43,0,0,1-9.38,5.16,75.76,75.76,0,0,1-21,7C724,401,722.88,401.24,721.72,401.5Zm-7.85,9.32a3.27,3.27,0,0,1-2.48,1.14h0a3.89,3.89,0,0,1-3.68-3.89l-.77-23.38a3.66,3.66,0,0,1,2.8-3.83,3.1,3.1,0,0,1,.63-.06,3.89,3.89,0,0,1,3.68,3.89l.78,23.38A3.93,3.93,0,0,1,713.87,410.82Zm78.79-14.44c.14,4.3-2.92,7.79-6.85,7.79H741.76c2.22-.87,4.68-1.94,7.43-3.28a84.62,84.62,0,0,0,19.21-12.31h16.92c3.92,0,7.21,3.5,7.35,7.8Z" transform="translate(0 1)"/><rect class="cls-1" x="694.21" y="428.07" width="7.09" height="7.82" transform="translate(-69.59 142.03) rotate(-11)"/><rect class="cls-1" x="678.81" y="423.1" width="7.09" height="7.82" transform="translate(-68.92 139) rotate(-11)"/><rect class="cls-1" x="687.01" y="409.56" width="7.09" height="7.82" transform="translate(-66.19 140.32) rotate(-11)"/></g><path class="cls-1" d="M433.39,264.88a3.56,3.56,0,0,0,2.43-.95,3.08,3.08,0,0,0,0-4.56,3.59,3.59,0,0,0-4.85,0,3.08,3.08,0,0,0,0,4.56A3.56,3.56,0,0,0,433.39,264.88Z" transform="translate(0 1)"/><path class="cls-1" d="M422.4,278.64a3.56,3.56,0,0,0,2.43-.95,3.08,3.08,0,0,0,0-4.56,3.59,3.59,0,0,0-4.85,0,3.08,3.08,0,0,0,0,4.56A3.56,3.56,0,0,0,422.4,278.64Z" transform="translate(0 1)"/><path class="cls-1" d="M557.94,264.88a3.56,3.56,0,0,0,2.43-.95,3.08,3.08,0,0,0,0-4.56,3.59,3.59,0,0,0-4.85,0,3.08,3.08,0,0,0,0,4.56A3.56,3.56,0,0,0,557.94,264.88Z" transform="translate(0 1)"/><path class="cls-1" d="M550.61,254.57a3.56,3.56,0,0,0,2.43-.95,3.08,3.08,0,0,0,0-4.56,3.59,3.59,0,0,0-4.85,0,3.08,3.08,0,0,0,0,4.56A3.56,3.56,0,0,0,550.61,254.57Z" transform="translate(0 1)"/><path class="cls-1" d="M550.61,282.08a3.56,3.56,0,0,0,2.43-.95,3.08,3.08,0,0,0,0-4.56,3.59,3.59,0,0,0-4.85,0,3.08,3.08,0,0,0,0,4.56A3.56,3.56,0,0,0,550.61,282.08Z" transform="translate(0 1)"/><path class="cls-1" d="M557.94,295.84a3.56,3.56,0,0,0,2.43-.95,3.08,3.08,0,0,0,0-4.56,3.59,3.59,0,0,0-4.85,0,3.08,3.08,0,0,0,0,4.56A3.56,3.56,0,0,0,557.94,295.84Z" transform="translate(0 1)"/><path class="cls-1" d="M495.66,275.2a3.56,3.56,0,0,0,2.43-.95,3.08,3.08,0,0,0,0-4.56,3.59,3.59,0,0,0-4.85,0,3.08,3.08,0,0,0,0,4.56A3.56,3.56,0,0,0,495.66,275.2Z" transform="translate(0 1)"/><path class="cls-1" d="M492,292.4a3.56,3.56,0,0,0,2.43-.95,3.08,3.08,0,0,0,0-4.56,3.59,3.59,0,0,0-4.85,0,3.08,3.08,0,0,0,0,4.56A3.56,3.56,0,0,0,492,292.4Z" transform="translate(0 1)"/><path class="cls-1" d="M433.39,292.4a3.56,3.56,0,0,0,2.43-.95,3.08,3.08,0,0,0,0-4.56,3.59,3.59,0,0,0-4.85,0,3.08,3.08,0,0,0,0,4.56A3.56,3.56,0,0,0,433.39,292.4Z" transform="translate(0 1)"/><path class="cls-1" d="M583.58,234.36H576V179.1a3.78,3.78,0,0,1,3.89-3.65,3.23,3.23,0,1,0,0-6.45H528.63a3.23,3.23,0,1,0,0,6.45,3.78,3.78,0,0,1,3.89,3.65v55.25H513.75V179.1a3.78,3.78,0,0,1,3.89-3.65,3.23,3.23,0,1,0,0-6.45H466.36a3.23,3.23,0,1,0,0,6.45,3.78,3.78,0,0,1,3.89,3.65v55.25H451.48V179.1a3.78,3.78,0,0,1,3.89-3.65,3.23,3.23,0,1,0,0-6.45H404.09a3.23,3.23,0,1,0,0,6.45A3.78,3.78,0,0,1,408,179.1v55.25h-7.56c-8,0-14.42,6.08-14.42,13.54v75.68c0,7.47,6.47,13.54,14.42,13.54h.23v3.65a3.44,3.44,0,0,0,6.87,0v-3.65h169v3.65a3.44,3.44,0,0,0,6.87,0v-3.65h.23c8,0,14.42-6.08,14.42-13.54V247.9C598,240.43,591.53,234.36,583.58,234.36Zm-13.69-58.91a9.51,9.51,0,0,0-.73,3.65v44.17c-.29-.15-.59-.31-.91-.49a15.32,15.32,0,0,0-15.75,0,8.09,8.09,0,0,1-8.67,0,15.1,15.1,0,0,0-4.43-1.83V179.1a9.51,9.51,0,0,0-.73-3.65Zm-30.49,52.37c.29.15.58.31.9.49a15.3,15.3,0,0,0,15.74,0,8.11,8.11,0,0,1,8.68,0,15.14,15.14,0,0,0,4.44,1.83v4.22H539.39Zm0,13h29.76V299.5c0,7.71-6.68,14-14.88,14s-14.88-6.27-14.88-14Zm-63-65.36h31.23a9.51,9.51,0,0,0-.73,3.65v55.25H477.12V179.1A9.51,9.51,0,0,0,476.39,175.45Zm.73,83.33c.29.15.58.31.9.49a15.3,15.3,0,0,0,15.74,0,8.11,8.11,0,0,1,8.68,0,15.14,15.14,0,0,0,4.44,1.83v38.4c0,7.71-6.68,14-14.88,14s-14.88-6.27-14.88-14Zm29.76-4.55c-.29-.15-.59-.31-.91-.49a15.32,15.32,0,0,0-15.75,0,8.09,8.09,0,0,1-8.67,0,15.1,15.1,0,0,0-4.43-1.83v-11.1h29.76Zm-92.77-78.78h31.23a9.51,9.51,0,0,0-.73,3.65v55.25H414.85V179.1A9.51,9.51,0,0,0,414.12,175.45Zm.73,76.45c.29.15.58.31.9.49a15.3,15.3,0,0,0,15.74,0,8.11,8.11,0,0,1,8.68,0,15.14,15.14,0,0,0,4.44,1.83V299.5c0,7.71-6.68,14-14.88,14s-14.88-6.27-14.88-14Zm29.76-4.55c-.29-.15-.59-.31-.91-.49a15.32,15.32,0,0,0-15.75,0,8.09,8.09,0,0,1-8.67,0,15.1,15.1,0,0,0-4.43-1.83v-4.22h29.76Zm146.52,76.23a7.34,7.34,0,0,1-7.56,7.09H400.42a7.34,7.34,0,0,1-7.56-7.09V247.9a7.34,7.34,0,0,1,7.56-7.09H408V299.5c0,11.26,9.76,20.42,21.75,20.42s21.75-9.16,21.75-20.42V240.81h18.77V299.5c0,11.26,9.76,20.42,21.75,20.42s21.75-9.16,21.75-20.42V240.81h18.77V299.5c0,11.26,9.76,20.42,21.75,20.42S576,310.76,576,299.5V240.81h7.56a7.34,7.34,0,0,1,7.56,7.09Z" transform="translate(0 1)"/><path class="cls-1" d="M1048.85,523V507.26h4.92v-4.6h-29.54v4.6h4.92V523a24.78,24.78,0,0,0-4.64,2.56l-15.05-25.76v-10.9h4.92v-4.6h-4.92v-6.89a2.38,2.38,0,0,0-2.46-2.3h-2.46V468.2a2.38,2.38,0,0,0-2.46-2.3H987.31a2.38,2.38,0,0,0-2.46,2.3v6.89h-2.46a2.38,2.38,0,0,0-2.46,2.3v6.89H975v4.6h4.92v10.9l-28,48a10.93,10.93,0,0,0-1.5,5.5v2.25c0,6.33,5.52,11.49,12.31,11.49h64a13.06,13.06,0,0,0,5-1,26.22,26.22,0,0,0,7.27,1c13.57,0,24.61-10.31,24.61-23C1063.62,534.87,1057.75,526.61,1048.85,523Zm-4.92-15.72v4.6h-9.85v-4.6Zm-11.49,19.45a2.31,2.31,0,0,0,1.64-2.17v-8.09h9.85v8.09a2.31,2.31,0,0,0,1.64,2.17A18.92,18.92,0,0,1,1058,539.45a7.58,7.58,0,0,0-5,2l-2,1.9a2.58,2.58,0,0,1-1.74.67h-.85a2.57,2.57,0,0,1-1.74-.67l-2-1.9a7.6,7.6,0,0,0-5.22-2h-.85a7.6,7.6,0,0,0-5.22,2l-2,1.9a2.58,2.58,0,0,1-1.74.67h-.85a2.57,2.57,0,0,1-1.74-.67l-2-1.9a7.59,7.59,0,0,0-5-2A18.92,18.92,0,0,1,1032.44,526.71ZM989.77,470.5h9.85v4.6h-9.85Zm-4.92,9.19h19.69v4.6H984.85Zm-.3,21.78a2.18,2.18,0,0,0,.3-1.1V488.88h19.69v11.49a2.18,2.18,0,0,0,.3,1.1l8.78,15a7.57,7.57,0,0,0-4.87,2l-2,1.9a2.58,2.58,0,0,1-1.74.67h-.85a2.57,2.57,0,0,1-1.74-.67l-2-1.9a7.6,7.6,0,0,0-5.22-2h-.85a7.6,7.6,0,0,0-5.22,2l-2,1.9a2.58,2.58,0,0,1-1.74.67h-.85a2.57,2.57,0,0,1-1.74-.67l-2-1.9a7.57,7.57,0,0,0-4.87-2ZM962.7,562.4a7.16,7.16,0,0,1-7.38-6.89v-2.25a6.57,6.57,0,0,1,.9-3.3L973.11,521h2.32a2.57,2.57,0,0,1,1.74.67l2,1.9a7.6,7.6,0,0,0,5.22,2h.85a7.6,7.6,0,0,0,5.22-2l2-1.9a2.58,2.58,0,0,1,1.74-.67h.85a2.57,2.57,0,0,1,1.74.67l2,1.9a7.6,7.6,0,0,0,5.22,2h.85a7.6,7.6,0,0,0,5.22-2l2-1.9A2.58,2.58,0,0,1,1014,521h2.32l4.46,7.62a22.12,22.12,0,0,0-6.35,15.35,22.47,22.47,0,0,0,9.91,18.38Zm76.31,0c-10.86,0-19.69-8.25-19.69-18.38h.42a2.57,2.57,0,0,1,1.74.67l2,1.9a7.6,7.6,0,0,0,5.22,2h.85a7.6,7.6,0,0,0,5.22-2l2-1.9a2.58,2.58,0,0,1,1.74-.67h.85a2.57,2.57,0,0,1,1.74.67l2,1.9a7.6,7.6,0,0,0,5.22,2h.85a7.6,7.6,0,0,0,5.22-2l2-1.9a2.58,2.58,0,0,1,1.74-.67h.42C1058.69,554.16,1049.86,562.4,1039,562.4Z" transform="translate(0 1)"/><path class="cls-1" d="M967.62,544a6.91,6.91,0,1,0,7.38,6.89A7.16,7.16,0,0,0,967.62,544Zm0,9.19a2.3,2.3,0,1,1,2.46-2.3A2.39,2.39,0,0,1,967.62,553.21Z" transform="translate(0 1)"/><path class="cls-1" d="M987.31,539.43a6.91,6.91,0,1,0,7.38,6.89A7.16,7.16,0,0,0,987.31,539.43Zm0,9.19a2.3,2.3,0,1,1,2.46-2.3A2.39,2.39,0,0,1,987.31,548.62Z" transform="translate(0 1)"/><path class="cls-1" d="M1004.54,530.24a6.91,6.91,0,1,0,7.38,6.89A7.16,7.16,0,0,0,1004.54,530.24Zm0,9.19a2.3,2.3,0,1,1,2.46-2.3A2.39,2.39,0,0,1,1004.54,539.43Z" transform="translate(0 1)"/><path class="cls-1" d="M1007,553.21h4.92v4.6H1007Z" transform="translate(0 1)"/><path class="cls-1" d="M1002.08,548.62H1007v4.6h-4.92Z" transform="translate(0 1)"/><path class="cls-1" d="M997.16,553.21h4.92v4.6h-4.92Z" transform="translate(0 1)"/><path class="cls-1" d="M977.46,532.54h4.92v4.6h-4.92Z" transform="translate(0 1)"/><path class="cls-1" d="M1100.54,456.71h-34.46a2.38,2.38,0,0,0-2.46,2.3v9.19a2.38,2.38,0,0,0,2.46,2.3h2.46v82.71c0,7.6,6.62,13.79,14.77,13.79s14.77-6.18,14.77-13.79V470.5h2.46a2.38,2.38,0,0,0,2.46-2.3V459A2.38,2.38,0,0,0,1100.54,456.71ZM1083.31,562.4c-5.43,0-9.85-4.12-9.85-9.19V502.67h19.69v50.55C1093.15,558.28,1088.74,562.4,1083.31,562.4Zm9.85-64.33h-19.69V470.5h19.69Zm4.92-32.17h-29.54v-4.6h29.54Z" transform="translate(0 1)"/><path class="cls-1" d="M1078.39,550.92h4.92v4.6h-4.92Z" transform="translate(0 1)"/><path class="cls-1" d="M1083.31,541.73h4.92v4.6h-4.92Z" transform="translate(0 1)"/><path class="cls-1" d="M1078.39,532.54h4.92v4.6h-4.92Z" transform="translate(0 1)"/><path class="cls-1" d="M1083.31,523.35h4.92v4.6h-4.92Z" transform="translate(0 1)"/><path class="cls-1" d="M1078.39,514.16h4.92v4.6h-4.92Z" transform="translate(0 1)"/><path class="cls-1" d="M989.77,449.82a2.39,2.39,0,0,1,2.46-2.3h7.38v13.79h4.92V447.52h24.61v50.55h4.92V447.52h7.38a2.39,2.39,0,0,1,2.46,2.3v48.25h4.92V449.82a7.16,7.16,0,0,0-7.38-6.89h-7.38v-2.3a2.39,2.39,0,0,1,2.46-2.3h29.54a2.39,2.39,0,0,1,2.46,2.3v11.49h4.92V440.63a7.16,7.16,0,0,0-7.38-6.89h-29.54a7.16,7.16,0,0,0-7.38,6.89v2.3h-24.61V431.44a2.39,2.39,0,0,1,2.46-2.3h83.69a2.39,2.39,0,0,1,2.46,2.3v20.68h4.92V431.44a7.16,7.16,0,0,0-7.38-6.89H1007a7.16,7.16,0,0,0-7.38,6.89v11.49h-7.38a7.16,7.16,0,0,0-7.38,6.89v11.49h4.92Z" transform="translate(0 1)"/><path class="cls-1" d="M965.16,459a7.4,7.4,0,1,0,7.38-6.89A7.16,7.16,0,0,0,965.16,459Zm9.85,0a2.47,2.47,0,1,1-2.46-2.3A2.39,2.39,0,0,1,975,459Z" transform="translate(0 1)"/><path class="cls-1" d="M962.7,447.52c6.79,0,12.31-5.15,12.31-11.49s-5.52-11.49-12.31-11.49S950.39,429.7,950.39,436,955.91,447.52,962.7,447.52Zm0-18.38a6.91,6.91,0,1,1-7.38,6.89A7.16,7.16,0,0,1,962.7,429.14Z" transform="translate(0 1)"/><path class="cls-1" d="M960.23,488.88c5.43,0,9.85-4.12,9.85-9.19s-4.42-9.19-9.85-9.19-9.85,4.12-9.85,9.19S954.8,488.88,960.23,488.88Zm0-13.79a4.61,4.61,0,1,1-4.92,4.6A4.77,4.77,0,0,1,960.23,475.1Z" transform="translate(0 1)"/><path class="cls-1" d="M1438.9,470.29l-27.3-7.65a19.88,19.88,0,0,0,.89-20.6l-2.34-4.22a3.89,3.89,0,0,0-5.3-1.48l-42.34,23.45c0-.08,0-.16,0-.25a18.56,18.56,0,0,0-6.06-16.25L1312,403.22a11.54,11.54,0,0,0-.21-10.73,11.68,11.68,0,0,0-15.89-4.45l-24.19,13.4a11.68,11.68,0,0,0-4.66,15.83,11.54,11.54,0,0,0,9,5.87l10.37,58.95A18.56,18.56,0,0,0,1297,495.84l.23.1-42.34,23.45a3.89,3.89,0,0,0-1.55,5.28l2.34,4.22a19.88,19.88,0,0,0,17.93,10.18l-8,27.2a3.84,3.84,0,0,0,.32,2.94l22.43,40.49a7.59,7.59,0,0,0,10.33,2.89l161.94-89.69a7.59,7.59,0,0,0,3-10.29l-22.43-40.49A3.84,3.84,0,0,0,1438.9,470.29Zm-112.08-43.21-38.38,21.26-4.75-27,22.75-12.6Zm-51.34-18.88,24.19-13.4a3.86,3.86,0,1,1,3.74,6.76L1279.22,415a3.86,3.86,0,1,1-3.74-6.76Zm24.91,80.63a11,11,0,0,1-6.26-8.16l-4.27-24.29,43-23.83,18.32,16.51a11,11,0,0,1,3.59,9.63,11.32,11.32,0,0,1-5.83,8.6l-38.21,21.16A11.32,11.32,0,0,1,1300.39,488.82Zm156.32,27.42-161.6,89.5-21.56-38.92,8.83-30,.57-.3,47.12-26.1a3.86,3.86,0,1,0-3.74-6.76l-47.12,26.1a12.26,12.26,0,0,1-16.68-4.67l-.47-.84L1405.17,445l.47.84a12.26,12.26,0,0,1-4.89,16.62l-47,26a3.86,3.86,0,1,0,3.74,6.76l47-26,.56-.33,30.1,8.43Z" transform="translate(0 1)"/><path class="cls-1" d="M1363.57,506l-74.3,41.15a9.93,9.93,0,0,0-4,13.45L1296,579.86a9.93,9.93,0,0,0,13.5,3.78l74.3-41.15a9.93,9.93,0,0,0,4-13.45l-10.67-19.26A9.93,9.93,0,0,0,1363.57,506Zm17.32,26.83a2.14,2.14,0,0,1-.85,2.9l-74.3,41.15a2.14,2.14,0,0,1-2.91-.82l-10.67-19.26a2.14,2.14,0,0,1,.85-2.9l74.3-41.15a2.14,2.14,0,0,1,2.91.82Z" transform="translate(0 1)"/><path class="cls-1" d="M1332.26,537.11a4,4,0,0,0-1.87,2.33,3.82,3.82,0,0,0,2.65,4.78,3.95,3.95,0,0,0,4.84-2.68,3.82,3.82,0,0,0-2.65-4.78A4,4,0,0,0,1332.26,537.11Z" transform="translate(0 1)"/><path class="cls-1" d="M1337.06,545.77a4,4,0,0,0-1.87,2.33,3.82,3.82,0,0,0,2.65,4.78,3.95,3.95,0,0,0,4.84-2.68,3.82,3.82,0,0,0-2.65-4.78A4,4,0,0,0,1337.06,545.77Z" transform="translate(0 1)"/><path class="cls-1" d="M1362.05,526.27l-13.47,7.46a3.86,3.86,0,1,0,3.74,6.76l13.47-7.46a3.86,3.86,0,1,0-3.74-6.76Z" transform="translate(0 1)"/><path class="cls-1" d="M1320.74,549.15l-13.47,7.46a3.86,3.86,0,1,0,3.74,6.76l13.47-7.46a3.86,3.86,0,1,0-3.74-6.76Z" transform="translate(0 1)"/><path class="cls-1" d="M1423,485.7a11.18,11.18,0,0,0-20.75,7.25A11.18,11.18,0,0,0,1385,506.69a11,11,0,0,0,10.17,5.62,11,11,0,0,0,14.47,15.83,11.17,11.17,0,0,0,5.65-11.48,11.18,11.18,0,0,0,17.16-13.74,11,11,0,0,0-10.17-5.62A11,11,0,0,0,1423,485.7Zm-11.35,2.53a3.29,3.29,0,1,1-1.32,4.49A3.31,3.31,0,0,1,1411.6,488.23Zm-18.38,10.18a3.29,3.29,0,1,1-1.32,4.49A3.31,3.31,0,0,1,1393.22,498.41Zm12.73,23a3.29,3.29,0,1,1,1.32-4.49A3.31,3.31,0,0,1,1405.94,521.39Zm5.8-11.21a11.11,11.11,0,0,0-7.8-2.7,11.11,11.11,0,0,0,1.85-8,11.12,11.12,0,0,0,7.8,2.7A11.12,11.12,0,0,0,1411.75,510.18Zm12.58,1a3.29,3.29,0,1,1,1.32-4.49A3.31,3.31,0,0,1,1424.33,511.21Z" transform="translate(0 1)"/><path class="cls-1" d="M1301.38,460.75a4,4,0,0,0-1.87,2.33,3.83,3.83,0,0,0,2.65,4.78,3.95,3.95,0,0,0,4.84-2.68,3.83,3.83,0,0,0-2.65-4.78A4,4,0,0,0,1301.38,460.75Z" transform="translate(0 1)"/><path class="cls-1" d="M1327.47,443.64a4,4,0,0,0-1.87,2.33,3.83,3.83,0,0,0,2.65,4.78,3.95,3.95,0,0,0,4.84-2.68,3.83,3.83,0,0,0-2.65-4.78A4,4,0,0,0,1327.47,443.64Z" transform="translate(0 1)"/><path class="cls-1" d="M1322.29,464.18a4,4,0,0,0-1.87,2.33,3.83,3.83,0,0,0,2.65,4.78,3.95,3.95,0,0,0,4.84-2.68,3.83,3.83,0,0,0-2.65-4.78A4,4,0,0,0,1322.29,464.18Z" transform="translate(0 1)"/><path class="cls-1" d="M1343.72,502.87a4,4,0,0,0,1.87-2.33,3.83,3.83,0,0,0-2.65-4.78,3.95,3.95,0,0,0-4.84,2.68,3.83,3.83,0,0,0,2.65,4.78A4,4,0,0,0,1343.72,502.87Z" transform="translate(0 1)"/><path class="cls-1" d="M1460.25,154.61l-4.61,4-65.11-75.25c6.93-7.77,7.69-19.06,1.34-26.4-7-8-19.87-8.34-28.77-.64s-10.47,20.51-3.5,28.56c6.35,7.34,17.63,8.2,26.32,2.46l12.78,14.77-18.44,16-7.22-8.34,4.61-4-10.83-12.51-13.83,12-18-20.86c-5-5.75-14.19-6-20.55-.45s-7.48,14.65-2.5,20.4l1.8,2.09c3,3.45,2.31,8.94-1.5,12.24s-9.35,3.18-12.33-.27l-1.8-2.09c-5-5.75-14.19-6-20.55-.45l-9.22,8c-6.36,5.5-7.48,14.65-2.5,20.4l14.44,16.69-13.83,12c-3.81,3.3-4.49,8.79-1.5,12.24s8.52,3.57,12.33.27l2.31-2L1290,195.42c-3.49,10.4-1.6,21.44,5.1,29.18a29.19,29.19,0,0,0,23.24,9.79,34.52,34.52,0,0,0,13.81-3.47l1,6.68a12.42,12.42,0,0,0,10.57,10.58l-4.62,4c-8.9,7.7-10.47,20.51-3.5,28.56l1.8,2.09L1397.31,231l-1.8-2.09c-7-8-19.87-8.34-28.77-.64l-4.61,4a12.46,12.46,0,0,0-9-12l-6.42-1.94c7.38-11,7.95-25,.89-35.18-6.47-9.34-18.1-13.8-30-11.64l-10.45-12.08,2.31-2c3.81-3.3,4.49-8.79,1.5-12.24s-8.52-3.57-12.33-.27l-13.83,12-14.44-16.69c-3-3.45-2.31-8.94,1.5-12.24l9.22-8c3.81-3.3,9.35-3.18,12.33.27l1.8,2.09c5,5.75,14.19,6,20.55.45s7.48-14.65,2.5-20.4l-1.8-2.09c-3-3.45-2.31-8.94,1.5-12.24s9.35-3.18,12.33.27l18,20.86-13.83,12,10.83,12.51,4.61-4,34.29,39.63c5,5.75,14.19,6,20.55.45s7.48-14.65,2.5-20.4l-16.24-18.77,18.44-16,41.51,48-18.44,16c-3.81,3.3-4.49,8.79-1.5,12.24l9,10.43,41.49-35.9-9-10.43C1469.59,151.44,1464.06,151.32,1460.25,154.61Zm-119.92,70.93c.82-.71,1.6-1.48,2.37-2.26l8.26,2.5a7.52,7.52,0,0,1,3.54,2.28,7.28,7.28,0,0,1,1.34,2.38,9.43,9.43,0,0,0-13,11.26,7.32,7.32,0,0,1-2.17-1.67,7.52,7.52,0,0,1-1.74-3.83l-1.29-8.54C1338.55,227,1339.46,226.3,1340.33,225.55ZM1353,240.1l-.13.13a3.35,3.35,0,1,1,.13-.13Zm35.87-9.12-50.25,43.48c-3-5.68-1.49-13.3,4.07-18.11l27.66-23.94C1375.91,227.59,1383.68,227.15,1388.86,231Zm-46.15-44.29c6.62,9.56,5,23.26-3.77,32.56a29.1,29.1,0,0,1-20.24,9.37,23.87,23.87,0,0,1-19-8,22.1,22.1,0,0,1-2.65-3.93,18,18,0,0,0,7.75-4.13,18.69,18.69,0,0,0,6.08-9.52,13.26,13.26,0,0,1,11.28-9.76,18.73,18.73,0,0,0,10.31-4.66,18.05,18.05,0,0,0,5.25-7.17A23.16,23.16,0,0,1,1342.7,186.69Zm-36.33-37.53a2.92,2.92,0,0,1-.5,4.08l-6.92,6,16.11,18.61,1.67-.39a25.76,25.76,0,0,1,16,1.19,11.7,11.7,0,0,1-3.87,5.8,12.32,12.32,0,0,1-7.14,3.15,19.84,19.84,0,0,0-16.39,14.18,12.3,12.3,0,0,1-4.13,6.61,11.65,11.65,0,0,1-6.26,3,26,26,0,0,1,1.09-16l.63-1.6-12.5-14.44,13.83-12-3.61-4.17-20.75,18A2.77,2.77,0,1,1,1270,177l32.27-27.93A2.92,2.92,0,0,1,1306.38,149.16Zm57.83-68.27c-5-5.75-3.85-14.9,2.5-20.4s15.57-5.29,20.55.45,3.85,14.9-2.5,20.4S1369.18,86.64,1364.2,80.89Zm-21.44,40.44,23.05-19.95,3.61,4.17-23.05,19.95Zm47.32,17.41-4.61,4,3.61,4.17,4.61-4,3.61,4.17-9.22,8,3.61,4.17,9.22-8,1.8,2.09c3,3.45,2.31,8.94-1.5,12.24s-9.35,3.18-12.33-.27l-34.29-39.63,13.83-12,7.22,8.34-9.22,8,10.83,12.51,9.22-8Zm-11.83-4.35-3.61-4.17,27.66-23.94,3.61,4.17Zm95.13,30.75-32.27,27.93-5.41-6.26a2.92,2.92,0,0,1,.5-4.08l27.66-23.94a2.92,2.92,0,0,1,4.11.09Z" transform="translate(0 1)"/><path class="cls-1" d="M1382.65,64.93c-3-3.45-8.52-3.57-12.33-.27s-4.49,8.79-1.5,12.24,8.52,3.57,12.33.27S1385.63,68.38,1382.65,64.93Zm-9.22,8a3.06,3.06,0,1,1,4.11.09A2.92,2.92,0,0,1,1373.43,72.91Z" transform="translate(0 1)"/><path class="cls-1" d="M1334.55,205a3.06,3.06,0,1,1-4.11-.09A2.91,2.91,0,0,1,1334.55,205Z" transform="translate(0 1)"/><path class="cls-1" d="M1340.17,192.87a3.06,3.06,0,1,1-4.11-.09A2.91,2.91,0,0,1,1340.17,192.87Z" transform="translate(0 1)"/><path class="cls-1" d="M1328.94,217.17a3.06,3.06,0,1,1-4.11-.09A2.91,2.91,0,0,1,1328.94,217.17Z" transform="translate(0 1)"/><path class="cls-1" d="M1322.73,200.67a3.06,3.06,0,1,1-4.11-.09A2.91,2.91,0,0,1,1322.73,200.67Z" transform="translate(0 1)"/><path class="cls-1" d="M1314.81,214.81a3.06,3.06,0,1,1-4.11-.09A2.91,2.91,0,0,1,1314.81,214.81Z" transform="translate(0 1)"/><path class="cls-1" d="M467,591.35l-33.84-91.23a45.5,45.5,0,0,1-2.83-15.87V460.13a10.2,10.2,0,0,1,2.58-6.87,12.44,12.44,0,0,0,3.14-8.38v-3.42a3.3,3.3,0,0,0-3.13-3.46H389.25a3.3,3.3,0,0,0-3.13,3.46v3.42a12.44,12.44,0,0,0,3.14,8.38,10.2,10.2,0,0,1,2.58,6.88v24.11A45.47,45.47,0,0,1,389,500.12l-9.3,25.07v0l-24.53,66.13a18.68,18.68,0,0,0,1.47,16.05A15.13,15.13,0,0,0,369.5,615h83.13a15.14,15.14,0,0,0,12.87-7.59A18.68,18.68,0,0,0,467,591.35Zm-72.18-88.61a53,53,0,0,0,3.3-18.5V460.13a17.46,17.46,0,0,0-4.41-11.76,5.19,5.19,0,0,1-1.31-3.45h37.39a5.18,5.18,0,0,1-1.31,3.45A17.46,17.46,0,0,0,424,460.13v24.11a53,53,0,0,0,3.3,18.5l7.55,20.35H387.24Zm65.52,100.81a8.91,8.91,0,0,1-7.68,4.53H369.5a8.92,8.92,0,0,1-7.68-4.53,10.92,10.92,0,0,1-1.48-7.18h5.15a3.47,3.47,0,0,0,0-6.91h-2.87l3.59-9.68h5.27a3.47,3.47,0,0,0,0-6.91h-2.71l3.59-9.68h5.42a3.47,3.47,0,0,0,0-6.91h-2.86l3.59-9.68h5.57a3.47,3.47,0,0,0,0-6.91h-3l3.59-9.68h52.78l23.73,64A11,11,0,0,1,460.31,603.55Z" transform="translate(0 1)"/><path class="cls-1" d="M451.54,591.57a3,3,0,0,0-4.08-1.89,3.59,3.59,0,0,0-1.71,4.51l0,0a3.14,3.14,0,0,0,2.89,2.15,2.86,2.86,0,0,0,1.18-.26,3.59,3.59,0,0,0,1.71-4.51Z" transform="translate(0 1)"/><path class="cls-1" d="M447.12,579.66l-11.19-30.18a3,3,0,0,0-4.08-1.89,3.59,3.59,0,0,0-1.71,4.51l11.19,30.18a3.14,3.14,0,0,0,2.89,2.15,2.85,2.85,0,0,0,1.18-.26A3.59,3.59,0,0,0,447.12,579.66Z" transform="translate(0 1)"/><path class="cls-1" d="M1052.7,269.75c-7.7-3-16.24.52-19.06,7.8s1.16,15.61,8.85,18.59,16.24-.52,19.06-7.79S1060.4,272.73,1052.7,269.75Zm-7.52,19.44a6.71,6.71,0,1,1,9-3.69A6.91,6.91,0,0,1,1045.18,289.19Z" transform="translate(0 1)"/><path class="cls-1" d="M1126.22,342a3.94,3.94,0,0,0-2.57-3.51l-26.1-10.1a56.7,56.7,0,0,0,2.06-24.61c25.5-7,46.74-23.71,58.5-46.29a3.78,3.78,0,0,0-1.79-5.08,3.88,3.88,0,0,0-5.23,1.53c-10.66,20.44-29.7,35.71-52.66,42.39-.39-1.47-1.13-2.82-1.62-4.26a62.83,62.83,0,0,0-2.6-6.81c-.13-.26-.18-.55-.31-.81,46.74-13.36,68.15-65,42.75-107.55l4.92-2a3.58,3.58,0,0,0,1.9-4.91l-1.16-2.44,2.74-1.12c6,7.86,12.77,23.14,14.74,38.26a84,84,0,0,1-2.86,34.93,3.87,3.87,0,0,0,2.68,4.73,3.79,3.79,0,0,0,4.83-2.4c8-26.4,3.45-54.78-12.19-78.47l10.88-4.45a9.88,9.88,0,0,0,11.06,2.53l4.41-1.8a8.9,8.9,0,0,0,4.72-12.19l-14.92-31.33a10.19,10.19,0,0,0-12.9-5l-4.41,1.8a8.81,8.81,0,0,0-4.92,11.35l-20.43,8.35-2.08-4.36a4.1,4.1,0,0,0-5.19-2l-32,13.07a3.58,3.58,0,0,0-1.9,4.91,4.11,4.11,0,0,0,5.19,2l28.42-11.62,16.51,34.67-68.41,28-16.51-34.67,25.51-10.43a3.58,3.58,0,0,0,1.9-4.91,4.11,4.11,0,0,0-5.2-2l-25.51,10.43-.51-1.08a8.79,8.79,0,0,0-11.11-4.3l-8.4,3.43a7.67,7.67,0,0,0-4.06,10.51l.51,1.08c-4.81,2.43-10.08,2.64-12.17,8a9.11,9.11,0,0,0,.32,7.27c1.93,3.22,2.43,8,8,10.14,5.73,2.22,9.41-1.25,14.62-2.91l1.62,3.4c-4.81,2.43-10.08,2.64-12.17,8-2,5.21,1.44,8.79,2.71,12.3a10.22,10.22,0,0,0,5.58,5.12c5.73,2.22,9.42-1.25,14.62-2.91a9.05,9.05,0,0,0,5.23,5.4,8.66,8.66,0,0,0,6.4,0l8.39-3.43a7.67,7.67,0,0,0,4.06-10.51l-.51-1.08,59.77-24.44c11,18,13.35,38.94,6,58.05-7.58,19.61-24.58,34.23-45.69,39.69a65.12,65.12,0,0,0-75.54-25.12,69.86,69.86,0,0,1-9.47-15.62l16.63,6.43a9.47,9.47,0,0,0,12.37-5.06l2-5.25a9.47,9.47,0,0,0-5.75-12.07l-58.76-22.73a9.47,9.47,0,0,0-12.37,5.06l-2,5.25a9.47,9.47,0,0,0,5.75,12.07l8.49,3.28c1.87,13.24,8.53,29.5,19.5,43.54A56.72,56.72,0,0,0,980.05,283L954,272.86a3.94,3.94,0,0,0-4.26.87L934.21,289.8a3.75,3.75,0,0,0,1.57,6.07l20.27,7.84a3.73,3.73,0,1,0,2.69-6.94L943.88,291l9.88-10.26,164.71,63.72.41,14.24-142.95-55.3a3.73,3.73,0,1,0-2.69,6.94l148.36,57.39a3.75,3.75,0,0,0,5.25-3.43ZM1023.34,184a2.19,2.19,0,0,1-2.77-1.07l-2.39-5a1.91,1.91,0,0,1,1-2.62l7-2.88,4.15,8.71Zm12.36,26a2.19,2.19,0,0,1-2.77-1.07l-2.39-5a1.91,1.91,0,0,1,1-2.62l7-2.88,4.15,8.71Zm27.06-.94-8.39,3.43c-1,.4.6,1.93-24.85-50.94a.5.5,0,0,1,.27-.69c8.43-3.39,8.78-3.88,9.12-3.15l2.16,4.54C1064.27,210.93,1063.54,208.7,1062.76,209Zm91.63-89,4.41-1.8a2,2,0,0,1,2.51,1l14.92,31.33a1.73,1.73,0,0,1-.92,2.37l-4.41,1.8a2,2,0,0,1-2.51-1l-14.92-31.33A1.73,1.73,0,0,1,1154.39,120Zm-5.08,11.42,10,21L1139,160.65l-10-21Zm-185.21,80,2-5.25a1.79,1.79,0,0,1,2.34-1l58.76,22.73a1.79,1.79,0,0,1,1.09,2.28l-2,5.25a1.79,1.79,0,0,1-2.34,1l-58.76-22.73A1.79,1.79,0,0,1,964.1,211.4Zm31.79,50.92a89.91,89.91,0,0,1-16.41-35.13l15,5.79a77.25,77.25,0,0,0,12.08,22.49c-1,.53-1.91,1.3-2.91,1.88a60,60,0,0,0-5.28,3.4C997.55,261.32,996.64,261.71,995.89,262.32Zm-8.73,23.38c11.44-24.07,41.89-36.08,69.24-25.5,27.92,10.8,41.63,40.54,34.06,65.46Z" transform="translate(0 1)"/></svg>