<svg id="Layer_1" data-name="Layer 1" xmlns="http://www.w3.org/2000/svg" viewBox="0 0 1428.55 597.2"><defs><style>.cls-1{fill:#fff;}</style></defs><title>footer-no-color</title><path class="cls-1" d="M245,227.37c-2.41-1-5.11-.19-6,1.9a4.5,4.5,0,0,0,2.72,5.69c2.41,1,5.11.19,6-1.9A4.47,4.47,0,0,0,245,227.37Z" transform="translate(-52.95 -29.49)"/><path class="cls-1" d="M244,181.82c-2.41-1-5.11-.19-6,1.9a4.5,4.5,0,0,0,2.72,5.69c2.41,1,5.11.19,6-1.9A4.48,4.48,0,0,0,244,181.82Z" transform="translate(-52.95 -29.49)"/><path class="cls-1" d="M197.78,317.84l-10.28-4.46,2.63-6.07c2.72-6.28.33-13.39-5.34-15.85L174.52,287l.28-.65a12.42,12.42,0,0,0,11.51-7.76,25.33,25.33,0,0,0,.94-18.18l-1-3.1a3.48,3.48,0,0,0-4.85-2.1l-3,1.35a25.33,25.33,0,0,0-12.64,13.11,12.42,12.42,0,0,0,2.2,13.71l-.28.65-10.28-4.46c-5.67-2.46-12.5.65-15.22,6.93l-2.63,6.07-27.41-11.89,30.63-70.61,22.33,9.68c3,12.79,11.1,22.86,22.48,27.8s24.28,4,35.66-2.58l5.19,2.25a4.16,4.16,0,0,0,3.29-7.59l-.68-.3a49.15,49.15,0,0,0,12.34-17.2,49.72,49.72,0,0,0,3.8-14.12v-.09A44.61,44.61,0,0,0,238.92,176l2-4.6,3.43,1.49a4.16,4.16,0,0,0,3.29-7.59l-3.43-1.49,7.58-17.46,3.43,1.49a4.16,4.16,0,0,0,3.29-7.59l-41.12-17.84a4.16,4.16,0,0,0-3.29,7.59l3.43,1.49L210,149l-34.27-14.86,9.22-21.26a4,4,0,0,0-1.78-5.28l-13.71-5.95a4,4,0,0,0-5.07,2.31l-9.22,21.26-6.85-3,1.65-3.8a3.75,3.75,0,1,0-6.85-3l-6.59,15.19a3.75,3.75,0,1,0,6.85,3l1.65-3.8,6.85,3-26.35,60.74-6.85-3,1.65-3.8a3.75,3.75,0,1,0-6.85-3L106.84,199a3.75,3.75,0,1,0,6.85,3l1.65-3.8,6.85,3-30.8,71c-8.58-1.62-17.8,3.49-21.77,12.66a4,4,0,0,0,1.78,5.28l130.21,56.48a4,4,0,0,0,5.07-2.31C211.23,333.77,207.25,322,197.78,317.84ZM190.86,240a31.41,31.41,0,0,1-16.1-16l38.81,16.83A31.41,31.41,0,0,1,190.86,240Zm45.66-20.79a39.76,39.76,0,0,1-13.43,16.73L171.8,213.65a39.76,39.76,0,0,1,3-21.24,41.19,41.19,0,0,1,3.34-6.19,22,22,0,0,0,8.64,7.2c6.74,2.92,14,.89,14.28.8.05,0,5.15-1.39,9.57.52s6.9,6.58,6.91,6.62c.14.28,3.62,7,10.35,9.89a21.77,21.77,0,0,0,10.77,1.43,41.26,41.26,0,0,1-2.15,6.48Zm-29.6-50a4.18,4.18,0,0,0,3.56-2.59l13.91-32.06,20.56,8.92-13.95,32a4.18,4.18,0,0,0,.54,4.37,35.8,35.8,0,0,1,8.29,24.53,15.7,15.7,0,0,1-8.64-.72c-4.42-1.92-6.9-6.58-6.91-6.62-.14-.28-3.62-7-10.35-9.89s-14-.89-14.28-.8c-.05,0-5.15,1.39-9.57-.52a15.92,15.92,0,0,1-6.62-6.11,35.81,35.81,0,0,1,23.45-10.57ZM172.4,141.79l34.27,14.86-2,4.6a44.63,44.63,0,0,0-28.76,15.57l-.07.09h0A49.75,49.75,0,0,0,168,189.44a49.15,49.15,0,0,0-4.12,20.77L146,202.47Zm7.89,122.6a16.71,16.71,0,0,1-.82,11.28,3.75,3.75,0,1,1-6.85-3,16.71,16.71,0,0,1,7.66-8.34ZM149,289.47a4,4,0,0,1,5.07-2.31l27.41,11.89a4,4,0,0,1,1.78,5.28l-2.63,6.07-34.27-14.86Zm20.53-178.74,6.85,3-7.58,17.46-6.85-3Zm-10.87,25.06,6.85,3L139.19,199.5l-6.85-3ZM129,204.12l6.85,3-30.63,70.61-6.85-3ZM78.71,284.23c3.33-3.81,8.52-5.33,13-3.39l102.8,44.59a11.39,11.39,0,0,1,6.4,11.8Z" transform="translate(-52.95 -29.49)"/><path class="cls-1" d="M227.56,219.79l-17.47-7.58c-2.41-1-5.11-.19-6,1.9s.31,4.64,2.72,5.69l17.47,7.58c2.41,1,5.11.19,6-1.9A4.48,4.48,0,0,0,227.56,219.79Z" transform="translate(-52.95 -29.49)"/><path class="cls-1" d="M743.26,71.93a8.94,8.94,0,1,0,8.68,9.2q0-.13,0-.26A8.82,8.82,0,0,0,743.26,71.93Zm0,12.17a3.23,3.23,0,1,1,3.14-3.32s0,.06,0,.09A3.19,3.19,0,0,1,743.26,84.1Z" transform="translate(-52.95 -29.49)"/><path class="cls-1" d="M755.08,47.59a8.94,8.94,0,1,0,8.68,9.2q0-.13,0-.26A8.82,8.82,0,0,0,755.08,47.59Zm0,12.17a3.23,3.23,0,1,1,3.14-3.32s0,.06,0,.09A3.19,3.19,0,0,1,755.08,59.76Z" transform="translate(-52.95 -29.49)"/><path class="cls-1" d="M778.73,90.19A8.75,8.75,0,0,0,770.3,97a8.42,8.42,0,0,0-3.39-.71,8.94,8.94,0,1,0,8.43,11.08,8.42,8.42,0,0,0,3.39.71,8.94,8.94,0,0,0,0-17.88Zm-11.82,18.26a3.23,3.23,0,1,1,3.14-3.32s0,.06,0,.09a3.19,3.19,0,0,1-3.14,3.22Zm11.82-6.09A3.23,3.23,0,1,1,781.87,99s0,.06,0,.09A3.19,3.19,0,0,1,778.73,102.36Z" transform="translate(-52.95 -29.49)"/><path class="cls-1" d="M867.41,44.36H787.23V38.27H769.86V80.49h17.37V50.06h38L807.14,68.7H796.47v5.7h70.94a15,15,0,0,0,0-30h0ZM781.69,74.78h-6.28V44h6.28Zm85.72-6.09H815l18.1-18.64h34.32a9.32,9.32,0,0,1,0,18.64Z" transform="translate(-52.95 -29.49)"/><rect class="cls-1" x="784.9" y="30.08" width="5.91" height="5.7"/><rect class="cls-1" x="808.54" width="5.91" height="5.7"/><path class="cls-1" d="M707.94,233H837.7l-50.47-64.9V150.85h-5.54v19.26l16.11,20.68H787a8.6,8.6,0,0,0-16.45,0H752.13v5.7H770.5a8.6,8.6,0,0,0,16.45,0h15.27l23.94,30.81H719.47l44.11-57.19V141.72H799V123.85H746.22v17.88H758V168.1Zm70.79-36.32a3.23,3.23,0,1,1,3.14-3.32s0,.06,0,.09A3.19,3.19,0,0,1,778.73,196.68Zm-27-60.66v-6.47h41.75V136Z" transform="translate(-52.95 -29.49)"/><path class="cls-1" d="M758,175.72a12,12,0,1,0,11.63,12.35q0-.18,0-.35A11.83,11.83,0,0,0,758,175.72ZM758,194a6.28,6.28,0,1,1,6.1-6.46q0,.09,0,.18A6.19,6.19,0,0,1,758,194Z" transform="translate(-52.95 -29.49)"/><rect class="cls-1" x="737.6" y="161.63" width="5.91" height="5.7"/><rect class="cls-1" x="708.05" y="149.12" width="5.91" height="5.7"/><path class="cls-1" d="M215,460.92l-32.85-31.19a3.45,3.45,0,0,0-4.7,0l-13.12,12.46a3,3,0,0,0-.23,4.24l.23.23,1.56,1.48-16.52,15.68c-25.32-12.06-56.56-7.37-76.81,11.77l-.11.1c-26,24.65-26,64.75,0,89.4A69.24,69.24,0,0,0,166.7,565h0c20.18-19.22,25.12-48.9,12.42-73l16.52-15.68,1.56,1.48a3.45,3.45,0,0,0,4.7,0L215,465.39a3,3,0,0,0,.23-4.24ZM77.17,560.61c-22.68-21.53-23.35-56.17-2-78.46,5.11,3.69,9.76,4.42,13.93,5.07,4.64.73,8.64,1.35,13.52,6s5.53,8.43,6.28,12.83c.82,4.79,1.75,10.21,8.15,16.28s12.1,7,17.15,7.73c4.63.72,8.63,1.33,13.51,6s5.54,8.44,6.3,12.84c.71,4.11,1.5,8.68,5.74,13.73C136.24,582.77,99.83,582.12,77.17,560.61Zm95.52-71.39a3,3,0,0,0-.56,3.76,54.85,54.85,0,0,1-7.68,65c-2.7-3.49-3.28-6.64-3.89-10.16-.83-4.78-1.76-10.21-8.16-16.29s-12.1-7-17.14-7.73c-4.63-.72-8.63-1.33-13.51-6s-5.53-8.43-6.28-12.83c-.82-4.79-1.75-10.21-8.15-16.28s-12.1-7-17.14-7.75c-3.54-.55-6.69-1.08-10.15-3.32a62.76,62.76,0,0,1,68.39-7.21,3.47,3.47,0,0,0,4-.53l18.25-17.33L191,471.85Zm26.86-18.08L171.4,444.42l8.42-8L208,463.16Z" transform="translate(-52.95 -29.49)"/><g id="Compound_Medicine" data-name="Compound Medicine"><path class="cls-1" d="M763.15,532.32a12.85,12.85,0,0,0-10.74,1.55l-13.93,9a21,21,0,0,0-.33-22.18l-11.76-18.42a3.47,3.47,0,0,0-.3-.4L715,484.53l-3.71-19.09c5-3.16,6.59-10.27,3.52-15.88a10.73,10.73,0,0,0-11.33-5.76l-20.88,4.06c-5.75,1.11-9.43,7.14-8.21,13.49a11.69,11.69,0,0,0,9.06,9.5l3.71,19.09-7.92,42.19a21,21,0,0,0,.2,8.48h-7.63a3.17,3.17,0,0,0-1.76.52l-21,13.54-1.89-3.38a3.46,3.46,0,0,0-4.63-1.59l-.27.15h0l-24.12,15.58a4,4,0,0,0-1.13,5.32h0l30.26,54a3.46,3.46,0,0,0,4.63,1.59l.27-.15h0l24.11-15.58a4,4,0,0,0,1.13-5.32h0l-1.89-3.37,2-1.27,21.39,3.56a3.27,3.27,0,0,0,2.3-.48l66.31-42.85c6.66-4.31,8.66-13.84,4.48-21.29a15.17,15.17,0,0,0-8.86-7.25Zm-111.7,85.16L625,570.23l18.1-11.69,1.89,3.38h0l1.45,2.59,23.13,41.27ZM694.27,489.4l-3.73-19.18,13.92-2.7,3.73,19.18a4.26,4.26,0,0,0,.59,1.48l7.39,11.55a25.81,25.81,0,0,0-4.16.48,22.37,22.37,0,0,0-8.93,3.64,16.33,16.33,0,0,1-6.69,2.74,16,16,0,0,1-5.09.28l3-15.88a4.26,4.26,0,0,0,0-1.6Zm-10.19-33.85L705,451.48a3.93,3.93,0,0,1,1.49,7.67l-20.88,4.06a3.93,3.93,0,0,1-1.49-7.67ZM686.21,534l3.66-19.46a22,22,0,0,0,8-.25,22.48,22.48,0,0,0,9-3.65,18.38,18.38,0,0,1,13.83-2.69l.86.14,10.84,17c3.43,5.29,2.38,12.47-2.33,16a9.78,9.78,0,0,1-2.53,1.38,13.52,13.52,0,0,0-6.63-1.8H686.75A12.58,12.58,0,0,1,686.21,534Zm80.7,15.41a7.4,7.4,0,0,1-3.16,4.73l-65.26,42.15-21.39-3.56a3.23,3.23,0,0,0-2.3.48l-3,2-18.91-33.75,20.14-13h48.12a7.25,7.25,0,0,1,6.3,3.9,5.4,5.4,0,0,1,.43.91,2,2,0,0,0,.13.37,7.84,7.84,0,0,1,.53,2.59c.13,4.3-2.93,7.79-6.85,7.81H681l.26,7.79h40.65c7.86,0,14-7,13.7-15.64a17.68,17.68,0,0,0-.25-2.09l20.81-13.45c3.32-2.16,7.72-.9,9.82,2.83a8.56,8.56,0,0,1,.91,5.94Z" transform="translate(-52.95 -29.49)"/><rect class="cls-1" x="698.97" y="527.64" width="7.09" height="7.82" transform="translate(-141.47 114.32) rotate(-11)"/><rect class="cls-1" x="711.38" y="517.26" width="7.09" height="7.82" transform="translate(-139.26 116.5) rotate(-11)"/><path class="cls-1" d="M795.24,386.36A14,14,0,0,0,785,381.8H720.38c-2.17-6.07-8.37-9.24-13.83-7.08a11.19,11.19,0,0,0-6.71,11l.78,23.38c.17,6.44,5.08,11.69,11,11.73a10.3,10.3,0,0,0,9.86-7.84h64.65c7.86,0,14-7,13.7-15.59a16.92,16.92,0,0,0-4.53-11ZM721.72,402.5v-1l-.4-11.92h34.19a93.43,93.43,0,0,1-9.38,5.16,75.76,75.76,0,0,1-21,7Zm-7.85,9.32a3.27,3.27,0,0,1-2.48,1.14h0a3.89,3.89,0,0,1-3.68-3.89l-.77-23.38a3.66,3.66,0,0,1,2.8-3.83,3.1,3.1,0,0,1,.63-.06,3.89,3.89,0,0,1,3.68,3.89l.78,23.38A3.93,3.93,0,0,1,713.87,411.82Zm78.79-14.44c.14,4.3-2.92,7.79-6.85,7.79h-44c2.22-.87,4.68-1.94,7.43-3.28a84.62,84.62,0,0,0,19.21-12.31h16.92c3.92,0,7.21,3.5,7.35,7.8Z" transform="translate(-52.95 -29.49)"/><rect class="cls-1" x="694.23" y="429.03" width="7.09" height="7.82" transform="translate(-122.74 111.61) rotate(-11)"/><rect class="cls-1" x="678.83" y="424.06" width="7.09" height="7.82" transform="translate(-122.07 108.58) rotate(-11)"/><rect class="cls-1" x="687.03" y="410.52" width="7.09" height="7.82" transform="translate(-119.34 109.89) rotate(-11)"/></g><path class="cls-1" d="M433.39,265.88a3.56,3.56,0,0,0,2.43-1,3.08,3.08,0,0,0,.21-4.35l-.21-.21a3.59,3.59,0,0,0-4.85,0,3.08,3.08,0,0,0-.21,4.35l.21.21A3.56,3.56,0,0,0,433.39,265.88Z" transform="translate(-52.95 -29.49)"/><path class="cls-1" d="M422.4,279.64a3.56,3.56,0,0,0,2.43-1,3.08,3.08,0,0,0,.21-4.35l-.21-.21a3.59,3.59,0,0,0-4.85,0,3.08,3.08,0,0,0-.21,4.35l.21.21A3.56,3.56,0,0,0,422.4,279.64Z" transform="translate(-52.95 -29.49)"/><path class="cls-1" d="M557.94,265.88a3.56,3.56,0,0,0,2.43-1,3.08,3.08,0,0,0,.21-4.35l-.21-.21a3.59,3.59,0,0,0-4.85,0,3.08,3.08,0,0,0-.21,4.35l.21.21A3.56,3.56,0,0,0,557.94,265.88Z" transform="translate(-52.95 -29.49)"/><path class="cls-1" d="M550.61,255.57a3.56,3.56,0,0,0,2.43-.95,3.08,3.08,0,0,0,.21-4.35l-.21-.21a3.59,3.59,0,0,0-4.85,0,3.08,3.08,0,0,0-.21,4.35l.21.21A3.56,3.56,0,0,0,550.61,255.57Z" transform="translate(-52.95 -29.49)"/><path class="cls-1" d="M550.61,283.08a3.56,3.56,0,0,0,2.43-1,3.08,3.08,0,0,0,.21-4.35l-.21-.21a3.59,3.59,0,0,0-4.85,0,3.08,3.08,0,0,0-.21,4.35l.21.21A3.56,3.56,0,0,0,550.61,283.08Z" transform="translate(-52.95 -29.49)"/><path class="cls-1" d="M557.94,296.84a3.56,3.56,0,0,0,2.43-1,3.08,3.08,0,0,0,.21-4.35l-.21-.21a3.59,3.59,0,0,0-4.85,0,3.08,3.08,0,0,0-.21,4.35l.21.21A3.56,3.56,0,0,0,557.94,296.84Z" transform="translate(-52.95 -29.49)"/><path class="cls-1" d="M495.66,276.2a3.56,3.56,0,0,0,2.43-1,3.08,3.08,0,0,0,.21-4.35l-.21-.21a3.59,3.59,0,0,0-4.85,0A3.08,3.08,0,0,0,493,275l.21.21A3.56,3.56,0,0,0,495.66,276.2Z" transform="translate(-52.95 -29.49)"/><path class="cls-1" d="M492,293.4a3.56,3.56,0,0,0,2.43-1,3.08,3.08,0,0,0,.21-4.35l-.21-.21a3.59,3.59,0,0,0-4.85,0,3.08,3.08,0,0,0-.21,4.35l.21.21A3.56,3.56,0,0,0,492,293.4Z" transform="translate(-52.95 -29.49)"/><path class="cls-1" d="M433.39,293.4a3.56,3.56,0,0,0,2.43-1,3.08,3.08,0,0,0,.21-4.35l-.21-.21a3.59,3.59,0,0,0-4.85,0,3.08,3.08,0,0,0-.21,4.35l.21.21A3.56,3.56,0,0,0,433.39,293.4Z" transform="translate(-52.95 -29.49)"/><path class="cls-1" d="M583.58,235.36H576V180.1a3.78,3.78,0,0,1,3.89-3.65,3.23,3.23,0,0,0,.36-6.45H528.63a3.23,3.23,0,0,0-.36,6.45h.36a3.78,3.78,0,0,1,3.89,3.65v55.25H513.75V180.1a3.78,3.78,0,0,1,3.89-3.65A3.23,3.23,0,0,0,518,170H466.36a3.23,3.23,0,1,0-.36,6.45h.36a3.78,3.78,0,0,1,3.89,3.65v55.25H451.48V180.1a3.78,3.78,0,0,1,3.89-3.65,3.23,3.23,0,1,0,.36-6.45H404.09a3.23,3.23,0,1,0-.36,6.45h.36A3.78,3.78,0,0,1,408,180.1h0v55.25h-7.56c-8,0-14.42,6.08-14.42,13.54v75.68c0,7.47,6.47,13.54,14.42,13.54h.23v3.65a3.44,3.44,0,0,0,6.87,0v-3.65h169v3.65a3.44,3.44,0,0,0,6.87,0v-3.65h.23c8,0,14.42-6.08,14.42-13.54V248.9C598,241.43,591.53,235.36,583.58,235.36Zm-13.69-58.91a9.51,9.51,0,0,0-.73,3.65v44.17l-.91-.49a15.32,15.32,0,0,0-15.75,0,8.09,8.09,0,0,1-8.67,0,15.1,15.1,0,0,0-4.43-1.83V180.1a9.51,9.51,0,0,0-.73-3.65ZM539.4,228.82l.9.49a15.3,15.3,0,0,0,15.74,0,8.11,8.11,0,0,1,8.68,0,15.14,15.14,0,0,0,4.44,1.83v4.22H539.39Zm0,13h29.76V300.5c0,7.71-6.68,14-14.88,14s-14.88-6.27-14.88-14Zm-63-65.36h31.23a9.51,9.51,0,0,0-.73,3.65v55.25H477.12V180.1a9.51,9.51,0,0,0-.73-3.65Zm.73,83.33.9.49a15.3,15.3,0,0,0,15.74,0,8.11,8.11,0,0,1,8.68,0,15.14,15.14,0,0,0,4.44,1.83v38.4c0,7.71-6.68,14-14.88,14s-14.88-6.27-14.88-14Zm29.76-4.55-.91-.49a15.32,15.32,0,0,0-15.75,0,8.09,8.09,0,0,1-8.67,0,15.1,15.1,0,0,0-4.43-1.83v-11.1h29.76Zm-92.77-78.78h31.23a9.51,9.51,0,0,0-.73,3.65v55.25H414.85V180.1a9.51,9.51,0,0,0-.73-3.65Zm.73,76.45.9.49a15.3,15.3,0,0,0,15.74,0,8.11,8.11,0,0,1,8.68,0,15.14,15.14,0,0,0,4.44,1.83V300.5c0,7.71-6.68,14-14.88,14s-14.88-6.27-14.88-14Zm29.76-4.55-.91-.49a15.32,15.32,0,0,0-15.75,0,8.09,8.09,0,0,1-8.67,0,15.1,15.1,0,0,0-4.43-1.83v-4.22h29.76Zm146.52,76.23a7.34,7.34,0,0,1-7.56,7.09H400.42a7.34,7.34,0,0,1-7.56-7.09V248.9a7.34,7.34,0,0,1,7.56-7.09H408V300.5c0,11.26,9.76,20.42,21.75,20.42s21.75-9.16,21.75-20.42V241.81h18.77V300.5c0,11.26,9.76,20.42,21.75,20.42s21.75-9.16,21.75-20.42V241.81h18.77V300.5c0,11.26,9.76,20.42,21.75,20.42S576,311.76,576,300.5V241.81h7.56a7.34,7.34,0,0,1,7.56,7.09Z" transform="translate(-52.95 -29.49)"/><path class="cls-1" d="M1048.85,524V508.26h4.92v-4.6h-29.54v4.6h4.92V524a24.78,24.78,0,0,0-4.64,2.56l-15-25.76V489.9h4.92v-4.6h-4.92v-6.89a2.38,2.38,0,0,0-2.46-2.3h-2.46V469.2a2.38,2.38,0,0,0-2.46-2.3H987.31a2.38,2.38,0,0,0-2.46,2.3h0v6.89h-2.46a2.38,2.38,0,0,0-2.46,2.3h0v6.89H975v4.6h4.92v10.9l-28,48a10.93,10.93,0,0,0-1.5,5.5v2.25c0,6.33,5.52,11.49,12.31,11.49h64a13.06,13.06,0,0,0,5-1,26.22,26.22,0,0,0,7.27,1c13.57,0,24.61-10.31,24.61-23C1063.62,535.87,1057.75,527.61,1048.85,524Zm-4.92-15.72v4.6h-9.85v-4.6Zm-11.49,19.45a2.31,2.31,0,0,0,1.64-2.17v-8.09h9.85v8.09a2.31,2.31,0,0,0,1.64,2.17A18.92,18.92,0,0,1,1058,540.45a7.58,7.58,0,0,0-5,2l-2,1.9a2.58,2.58,0,0,1-1.74.67h-.85a2.57,2.57,0,0,1-1.74-.67l-2-1.9a7.6,7.6,0,0,0-5.22-2h-.85a7.6,7.6,0,0,0-5.22,2l-2,1.9a2.58,2.58,0,0,1-1.74.67h-.85a2.57,2.57,0,0,1-1.74-.67l-2-1.9a7.59,7.59,0,0,0-5-2,18.92,18.92,0,0,1,12.39-12.74ZM989.77,471.5h9.85v4.6h-9.85Zm-4.92,9.19h19.69v4.6H984.85Zm-.3,21.78a2.18,2.18,0,0,0,.3-1.1V489.88h19.69v11.49a2.18,2.18,0,0,0,.3,1.1l8.78,15a7.57,7.57,0,0,0-4.87,2l-2,1.9a2.58,2.58,0,0,1-1.74.67h-.85a2.57,2.57,0,0,1-1.74-.67l-2-1.9a7.6,7.6,0,0,0-5.22-2h-.85a7.6,7.6,0,0,0-5.22,2l-2,1.9a2.58,2.58,0,0,1-1.74.67h-.85a2.57,2.57,0,0,1-1.74-.67l-2-1.9a7.57,7.57,0,0,0-4.87-2ZM962.7,563.4a7.16,7.16,0,0,1-7.38-6.89v-2.25a6.57,6.57,0,0,1,.9-3.3l16.89-29h2.32a2.57,2.57,0,0,1,1.74.67l2,1.9a7.6,7.6,0,0,0,5.22,2h.85a7.6,7.6,0,0,0,5.22-2l2-1.9a2.58,2.58,0,0,1,1.74-.67H995a2.57,2.57,0,0,1,1.74.67l2,1.9a7.6,7.6,0,0,0,5.22,2h.85a7.6,7.6,0,0,0,5.22-2l2-1.9A2.58,2.58,0,0,1,1014,522h2.32l4.46,7.62a22.12,22.12,0,0,0-6.35,15.35,22.47,22.47,0,0,0,9.91,18.38Zm76.31,0c-10.86,0-19.69-8.25-19.69-18.38h.42a2.57,2.57,0,0,1,1.74.67l2,1.9a7.6,7.6,0,0,0,5.22,2h.85a7.6,7.6,0,0,0,5.22-2l2-1.9a2.58,2.58,0,0,1,1.74-.67h.85a2.57,2.57,0,0,1,1.74.67l2,1.9a7.6,7.6,0,0,0,5.22,2h.85a7.6,7.6,0,0,0,5.22-2l2-1.9a2.58,2.58,0,0,1,1.74-.67h.42c.14,10.14-8.69,18.38-19.55,18.38Z" transform="translate(-52.95 -29.49)"/><path class="cls-1" d="M967.62,545a6.91,6.91,0,1,0,7.38,6.89A7.16,7.16,0,0,0,967.62,545Zm0,9.19a2.3,2.3,0,1,1,2.46-2.3,2.39,2.39,0,0,1-2.46,2.32h0Z" transform="translate(-52.95 -29.49)"/><path class="cls-1" d="M987.31,540.43a6.91,6.91,0,1,0,7.38,6.89A7.16,7.16,0,0,0,987.31,540.43Zm0,9.19a2.3,2.3,0,1,1,2.46-2.3A2.39,2.39,0,0,1,987.31,549.62Z" transform="translate(-52.95 -29.49)"/><path class="cls-1" d="M1004.54,531.24a6.91,6.91,0,1,0,7.38,6.89A7.16,7.16,0,0,0,1004.54,531.24Zm0,9.19a2.3,2.3,0,1,1,2.46-2.3A2.39,2.39,0,0,1,1004.54,540.43Z" transform="translate(-52.95 -29.49)"/><path class="cls-1" d="M1007,554.21h4.92v4.6H1007Z" transform="translate(-52.95 -29.49)"/><path class="cls-1" d="M1002.08,549.62H1007v4.6h-4.92Z" transform="translate(-52.95 -29.49)"/><path class="cls-1" d="M997.16,554.21h4.92v4.6h-4.92Z" transform="translate(-52.95 -29.49)"/><path class="cls-1" d="M977.46,533.54h4.92v4.6h-4.92Z" transform="translate(-52.95 -29.49)"/><path class="cls-1" d="M1100.54,457.71h-34.46a2.38,2.38,0,0,0-2.46,2.3h0v9.19a2.38,2.38,0,0,0,2.46,2.3h2.46v82.71c0,7.6,6.62,13.79,14.77,13.79s14.77-6.18,14.77-13.79V471.5h2.46a2.38,2.38,0,0,0,2.46-2.3h0V460A2.38,2.38,0,0,0,1100.54,457.71ZM1083.31,563.4c-5.43,0-9.85-4.12-9.85-9.19V503.67h19.69v50.55C1093.15,559.28,1088.74,563.4,1083.31,563.4Zm9.85-64.33h-19.69V471.5h19.69Zm4.92-32.17h-29.54v-4.6h29.54Z" transform="translate(-52.95 -29.49)"/><path class="cls-1" d="M1078.39,551.92h4.92v4.6h-4.92Z" transform="translate(-52.95 -29.49)"/><path class="cls-1" d="M1083.31,542.73h4.92v4.6h-4.92Z" transform="translate(-52.95 -29.49)"/><path class="cls-1" d="M1078.39,533.54h4.92v4.6h-4.92Z" transform="translate(-52.95 -29.49)"/><path class="cls-1" d="M1083.31,524.35h4.92v4.6h-4.92Z" transform="translate(-52.95 -29.49)"/><path class="cls-1" d="M1078.39,515.16h4.92v4.6h-4.92Z" transform="translate(-52.95 -29.49)"/><path class="cls-1" d="M989.77,450.82a2.39,2.39,0,0,1,2.46-2.3h7.38v13.79h4.92V448.52h24.61v50.55h4.92V448.52h7.38a2.39,2.39,0,0,1,2.46,2.3v48.25h4.92V450.82a7.16,7.16,0,0,0-7.38-6.89h-7.38v-2.3a2.39,2.39,0,0,1,2.46-2.3h29.54a2.39,2.39,0,0,1,2.46,2.3v11.49h4.92V441.63a7.16,7.16,0,0,0-7.38-6.89h-29.54a7.16,7.16,0,0,0-7.38,6.89v2.3h-24.61V432.44a2.39,2.39,0,0,1,2.46-2.3h83.69a2.39,2.39,0,0,1,2.46,2.3v20.68h4.92V432.44a7.16,7.16,0,0,0-7.38-6.89H1007a7.16,7.16,0,0,0-7.38,6.89v11.49h-7.38a7.16,7.16,0,0,0-7.38,6.89v11.49h4.92Z" transform="translate(-52.95 -29.49)"/><path class="cls-1" d="M965.16,460a7.4,7.4,0,1,0,7.89-6.87l-.51,0A7.16,7.16,0,0,0,965.16,460Zm9.85,0a2.47,2.47,0,1,1-2.63-2.29h.17A2.39,2.39,0,0,1,975,460Z" transform="translate(-52.95 -29.49)"/><path class="cls-1" d="M962.7,448.52c6.79,0,12.31-5.15,12.31-11.49s-5.52-11.49-12.31-11.49S950.39,430.7,950.39,437,955.91,448.52,962.7,448.52Zm0-18.38a6.91,6.91,0,1,1-7.38,6.89,7.16,7.16,0,0,1,7.38-6.89Z" transform="translate(-52.95 -29.49)"/><path class="cls-1" d="M960.23,489.88c5.43,0,9.85-4.12,9.85-9.19s-4.42-9.19-9.85-9.19-9.85,4.12-9.85,9.19S954.8,489.88,960.23,489.88Zm0-13.79a4.61,4.61,0,1,1-4.92,4.6,4.77,4.77,0,0,1,4.92-4.59Z" transform="translate(-52.95 -29.49)"/><path class="cls-1" d="M1438.9,471.29l-27.3-7.65a19.88,19.88,0,0,0,.89-20.6l-2.34-4.22a3.89,3.89,0,0,0-5.3-1.48h0l-42.34,23.45v-.25a18.56,18.56,0,0,0-6.06-16.25L1312,404.22a11.54,11.54,0,0,0-.21-10.73A11.68,11.68,0,0,0,1295.9,389l-24.19,13.4a11.68,11.68,0,0,0-4.66,15.83,11.54,11.54,0,0,0,9,5.87l10.37,59A18.56,18.56,0,0,0,1297,496.84l.23.1-42.34,23.45a3.89,3.89,0,0,0-1.55,5.28h0l2.34,4.22a19.88,19.88,0,0,0,17.93,10.18l-8,27.2a3.84,3.84,0,0,0,.32,2.94l22.43,40.49a7.59,7.59,0,0,0,10.33,2.89l161.94-89.69a7.59,7.59,0,0,0,3-10.29l-22.43-40.49A3.84,3.84,0,0,0,1438.9,471.29Zm-112.08-43.21-38.38,21.26-4.75-27,22.75-12.6Zm-51.34-18.88,24.19-13.4a3.86,3.86,0,1,1,3.74,6.76h0L1279.22,416a3.86,3.86,0,0,1-3.74-6.76Zm24.91,80.63a11,11,0,0,1-6.26-8.16l-4.27-24.29,43-23.83,18.32,16.51a11,11,0,0,1,3.59,9.63,11.32,11.32,0,0,1-5.83,8.6l-38.21,21.16a11.32,11.32,0,0,1-10.34.37Zm156.32,27.42-161.6,89.5-21.56-38.92,8.83-30,.57-.3,47.12-26.1a3.86,3.86,0,1,0-3.74-6.76l-47.12,26.1a12.26,12.26,0,0,1-16.68-4.67l-.47-.84L1405.17,446l.47.84a12.26,12.26,0,0,1-4.89,16.62l-47,26a3.86,3.86,0,1,0,3.74,6.76l47-26,.56-.33,30.1,8.43Z" transform="translate(-52.95 -29.49)"/><path class="cls-1" d="M1363.57,507l-74.3,41.15a9.93,9.93,0,0,0-4,13.45L1296,580.86a9.93,9.93,0,0,0,13.5,3.78l74.3-41.15a9.93,9.93,0,0,0,4-13.45l-10.67-19.26a9.93,9.93,0,0,0-13.52-3.8Zm17.32,26.83a2.14,2.14,0,0,1-.85,2.9l-74.3,41.15a2.14,2.14,0,0,1-2.91-.82l-10.67-19.26a2.14,2.14,0,0,1,.85-2.9l74.3-41.15a2.14,2.14,0,0,1,2.91.82Z" transform="translate(-52.95 -29.49)"/><path class="cls-1" d="M1332.26,538.11a4,4,0,0,0-1.87,2.33,3.82,3.82,0,0,0,2.56,4.76l.09,0a4,4,0,0,0,4.84-2.68,3.82,3.82,0,0,0-2.56-4.76l-.09,0A4,4,0,0,0,1332.26,538.11Z" transform="translate(-52.95 -29.49)"/><path class="cls-1" d="M1337.06,546.77a4,4,0,0,0-1.87,2.33,3.82,3.82,0,0,0,2.56,4.76l.09,0a4,4,0,0,0,4.84-2.68,3.82,3.82,0,0,0-2.56-4.76l-.09,0A4,4,0,0,0,1337.06,546.77Z" transform="translate(-52.95 -29.49)"/><path class="cls-1" d="M1362.05,527.27l-13.47,7.46a3.86,3.86,0,1,0,3.74,6.76l13.47-7.46a3.86,3.86,0,1,0-3.74-6.76Z" transform="translate(-52.95 -29.49)"/><path class="cls-1" d="M1320.74,550.15l-13.47,7.46a3.86,3.86,0,1,0,3.74,6.76h0l13.47-7.46a3.86,3.86,0,1,0-3.74-6.76Z" transform="translate(-52.95 -29.49)"/><path class="cls-1" d="M1423,486.7a11.18,11.18,0,0,0-20.75,7.25A11.18,11.18,0,0,0,1385,507.69a11,11,0,0,0,10.17,5.62,11,11,0,0,0,14.47,15.83,11.17,11.17,0,0,0,5.65-11.48,11.18,11.18,0,0,0,17.16-13.74,11,11,0,0,0-10.17-5.62A11,11,0,0,0,1423,486.7Zm-11.35,2.53a2.43,2.43,0,1,1-.05,0Zm-18.38,10.18a2.43,2.43,0,1,1-.05,0Zm12.73,23a2.34,2.34,0,1,0-.06,0Zm5.8-11.21a11.11,11.11,0,0,0-7.8-2.7,11.11,11.11,0,0,0,1.85-8,11.12,11.12,0,0,0,7.8,2.7,11.12,11.12,0,0,0-1.9,8Zm12.58,1a3.29,3.29,0,1,1,1.32-4.49,3.29,3.29,0,0,1-1.32,4.49l0,0Z" transform="translate(-52.95 -29.49)"/><path class="cls-1" d="M1301.38,461.75a4,4,0,0,0-1.87,2.33,3.83,3.83,0,0,0,2.58,4.76l.07,0a4,4,0,0,0,4.84-2.68,3.83,3.83,0,0,0-2.58-4.76l-.07,0A4,4,0,0,0,1301.38,461.75Z" transform="translate(-52.95 -29.49)"/><path class="cls-1" d="M1327.47,444.64a4,4,0,0,0-1.87,2.33,3.83,3.83,0,0,0,2.58,4.76l.07,0a4,4,0,0,0,4.84-2.68,3.83,3.83,0,0,0-2.58-4.76l-.07,0A4,4,0,0,0,1327.47,444.64Z" transform="translate(-52.95 -29.49)"/><path class="cls-1" d="M1322.29,465.18a4,4,0,0,0-1.87,2.33,3.83,3.83,0,0,0,2.58,4.76l.07,0a4,4,0,0,0,4.84-2.68,3.83,3.83,0,0,0-2.58-4.76l-.07,0A4,4,0,0,0,1322.29,465.18Z" transform="translate(-52.95 -29.49)"/><path class="cls-1" d="M1343.72,503.87a4,4,0,0,0,1.87-2.33,3.83,3.83,0,0,0-2.58-4.76l-.07,0a4,4,0,0,0-4.84,2.68,3.83,3.83,0,0,0,2.58,4.76l.07,0A4,4,0,0,0,1343.72,503.87Z" transform="translate(-52.95 -29.49)"/><path class="cls-1" d="M1460.25,155.61l-4.61,4-65.11-75.25c6.93-7.77,7.69-19.06,1.34-26.4-7-8-19.87-8.34-28.77-.64s-10.47,20.51-3.5,28.56c6.35,7.34,17.63,8.2,26.32,2.46l12.78,14.77-18.44,16-7.22-8.34,4.61-4-10.83-12.51-13.83,12L1335,85.4c-5-5.75-14.19-6-20.55-.45s-7.48,14.65-2.5,20.4l1.8,2.09c3,3.45,2.31,8.94-1.5,12.24s-9.35,3.18-12.33-.27l-1.8-2.09c-5-5.75-14.19-6-20.55-.45l-9.22,8c-6.36,5.5-7.48,14.65-2.5,20.4L1280.28,162l-13.83,12c-3.81,3.3-4.49,8.79-1.5,12.24s8.52,3.57,12.33.27l2.31-2L1290,196.42c-3.49,10.4-1.6,21.44,5.1,29.18a29.19,29.19,0,0,0,23.24,9.79,34.52,34.52,0,0,0,13.81-3.47l1,6.68a12.42,12.42,0,0,0,10.57,10.58l-4.62,4c-8.9,7.7-10.47,20.51-3.5,28.56l1.8,2.09L1397.31,232l-1.8-2.09c-7-8-19.87-8.34-28.77-.64l-4.61,4a12.46,12.46,0,0,0-9-12l-6.42-1.94c7.38-11,7.95-25,.89-35.18-6.47-9.34-18.1-13.8-30-11.64l-10.45-12.08,2.31-2c3.81-3.3,4.49-8.79,1.5-12.24s-8.52-3.57-12.33-.27l-13.83,12-14.44-16.69c-3-3.45-2.31-8.94,1.5-12.24l9.22-8c3.81-3.3,9.35-3.18,12.33.27l1.8,2.09c5,5.75,14.19,6,20.55.45s7.48-14.65,2.5-20.4l-1.8-2.09c-3-3.45-2.31-8.94,1.5-12.24s9.35-3.18,12.33.27l18,20.86-13.83,12,10.83,12.51,4.61-4,34.29,39.63c5,5.75,14.19,6,20.55.45s7.48-14.65,2.5-20.4L1391,131.62l18.44-16,41.51,48-18.44,16c-3.81,3.3-4.49,8.79-1.5,12.24l9,10.43,41.49-35.9-9-10.43C1469.59,152.44,1464.06,152.32,1460.25,155.61Zm-119.92,70.93c.82-.71,1.6-1.48,2.37-2.26l8.26,2.5a7.52,7.52,0,0,1,3.54,2.28,7.28,7.28,0,0,1,1.34,2.38,9.43,9.43,0,0,0-13,11.26,7.32,7.32,0,0,1-2.17-1.67,7.52,7.52,0,0,1-1.74-3.83l-1.29-8.54c.91-.66,1.82-1.36,2.69-2.11ZM1353,241.1l-.13.13a3.35,3.35,0,1,1,.13-.13Zm35.87-9.12-50.25,43.48c-3-5.68-1.49-13.3,4.07-18.11l27.66-23.94c5.56-4.82,13.33-5.26,18.51-1.41Zm-46.15-44.29c6.62,9.56,5,23.26-3.77,32.56a29.1,29.1,0,0,1-20.24,9.37,23.87,23.87,0,0,1-19-8,22.1,22.1,0,0,1-2.65-3.93,18,18,0,0,0,7.75-4.13,18.69,18.69,0,0,0,6.08-9.52,13.26,13.26,0,0,1,11.28-9.76,18.73,18.73,0,0,0,10.31-4.66,18,18,0,0,0,5.25-7.17,23.16,23.16,0,0,1,5,5.24Zm-36.33-37.53a2.92,2.92,0,0,1-.5,4.08l-6.92,6,16.11,18.61,1.67-.39a25.76,25.76,0,0,1,16,1.19,11.7,11.7,0,0,1-3.87,5.8,12.32,12.32,0,0,1-7.14,3.15,19.84,19.84,0,0,0-16.39,14.18,12.3,12.3,0,0,1-4.13,6.61,11.65,11.65,0,0,1-6.26,3,26,26,0,0,1,1.09-16l.63-1.6-12.5-14.44,13.83-12-3.61-4.17-20.75,18A2.77,2.77,0,0,1,1270,178h0l32.27-27.93a2.92,2.92,0,0,1,4.11.09Zm57.83-68.27c-5-5.75-3.85-14.9,2.5-20.4s15.57-5.29,20.55.45,3.85,14.9-2.5,20.4-15.59,5.3-20.57-.45Zm-21.44,40.44,23.05-19.95,3.61,4.17-23.05,19.95Zm47.32,17.41-4.61,4,3.61,4.17,4.61-4,3.61,4.17-9.22,8,3.61,4.17,9.22-8,1.8,2.09c3,3.45,2.31,8.94-1.5,12.24s-9.35,3.18-12.33-.27l-34.29-39.63,13.83-12,7.22,8.34-9.22,8,10.83,12.51,9.22-8Zm-11.83-4.35-3.61-4.17,27.66-23.94,3.61,4.17Zm95.13,30.75-32.27,27.93-5.41-6.26a2.92,2.92,0,0,1,.5-4.08l27.66-23.94a2.92,2.92,0,0,1,4.11.09Z" transform="translate(-52.95 -29.49)"/><path class="cls-1" d="M1382.65,65.93c-3-3.45-8.52-3.57-12.33-.27s-4.49,8.79-1.5,12.24,8.52,3.57,12.33.27S1385.63,69.38,1382.65,65.93Zm-9.22,8a3.06,3.06,0,1,1,4.33-.12l-.22.21a2.92,2.92,0,0,1-4.11-.11Z" transform="translate(-52.95 -29.49)"/><path class="cls-1" d="M1334.55,206a3.06,3.06,0,1,1-4.33.12l.22-.21A2.91,2.91,0,0,1,1334.55,206Z" transform="translate(-52.95 -29.49)"/><path class="cls-1" d="M1340.17,193.87a3.06,3.06,0,1,1-4.33.12l.22-.21A2.91,2.91,0,0,1,1340.17,193.87Z" transform="translate(-52.95 -29.49)"/><path class="cls-1" d="M1328.94,218.17a3.06,3.06,0,1,1-4.33.12l.22-.21A2.91,2.91,0,0,1,1328.94,218.17Z" transform="translate(-52.95 -29.49)"/><path class="cls-1" d="M1322.73,201.67a3.06,3.06,0,1,1-4.33.12l.22-.21A2.91,2.91,0,0,1,1322.73,201.67Z" transform="translate(-52.95 -29.49)"/><path class="cls-1" d="M1314.81,215.81a3.06,3.06,0,1,1-4.33.12l.22-.21A2.91,2.91,0,0,1,1314.81,215.81Z" transform="translate(-52.95 -29.49)"/><path class="cls-1" d="M467,592.35l-33.84-91.23a45.5,45.5,0,0,1-2.83-15.87V461.13a10.2,10.2,0,0,1,2.58-6.87,12.44,12.44,0,0,0,3.14-8.38v-3.42a3.3,3.3,0,0,0-3.13-3.46H389.25a3.3,3.3,0,0,0-3.13,3.46v3.42a12.44,12.44,0,0,0,3.14,8.38,10.2,10.2,0,0,1,2.58,6.88v24.11A45.47,45.47,0,0,1,389,501.12l-9.3,25.07h0l-24.53,66.13a18.68,18.68,0,0,0,1.47,16A15.13,15.13,0,0,0,369.5,616h83.13a15.14,15.14,0,0,0,12.87-7.59A18.68,18.68,0,0,0,467,592.35Zm-72.18-88.61a53,53,0,0,0,3.3-18.5V461.13a17.46,17.46,0,0,0-4.41-11.76,5.19,5.19,0,0,1-1.31-3.45h37.39a5.18,5.18,0,0,1-1.31,3.45A17.46,17.46,0,0,0,424,461.13v24.11a53,53,0,0,0,3.3,18.5l7.55,20.35H387.24Zm65.52,100.81a8.91,8.91,0,0,1-7.68,4.53H369.5a8.92,8.92,0,0,1-7.68-4.53,10.92,10.92,0,0,1-1.48-7.18h5.15a3.47,3.47,0,0,0,0-6.91h-2.87l3.59-9.68h5.27a3.47,3.47,0,0,0,0-6.91h-2.71l3.59-9.68h5.42a3.47,3.47,0,0,0,0-6.91h-2.86l3.59-9.68h5.57a3.47,3.47,0,0,0,0-6.91h-3l3.59-9.68h52.78l23.73,64a11,11,0,0,1-.87,9.54Z" transform="translate(-52.95 -29.49)"/><path class="cls-1" d="M451.54,592.57a3,3,0,0,0-3.73-2l-.35.13a3.59,3.59,0,0,0-1.71,4.51h0a3.14,3.14,0,0,0,2.89,2.15,2.86,2.86,0,0,0,1.18-.26,3.59,3.59,0,0,0,1.71-4.51Z" transform="translate(-52.95 -29.49)"/><path class="cls-1" d="M447.12,580.66l-11.19-30.18a3,3,0,0,0-3.73-2l-.35.13a3.59,3.59,0,0,0-1.71,4.51l11.19,30.18a3.14,3.14,0,0,0,2.89,2.15,2.85,2.85,0,0,0,1.18-.26A3.59,3.59,0,0,0,447.12,580.66Z" transform="translate(-52.95 -29.49)"/><path class="cls-1" d="M1052.7,270.75c-7.7-3-16.24.52-19.06,7.8s1.16,15.61,8.85,18.59,16.24-.52,19.06-7.79S1060.4,273.73,1052.7,270.75Zm-7.52,19.44a6.71,6.71,0,1,1,9-3.69,6.91,6.91,0,0,1-9,3.69Z" transform="translate(-52.95 -29.49)"/><path class="cls-1" d="M1126.22,343a3.94,3.94,0,0,0-2.57-3.51l-26.1-10.1a56.7,56.7,0,0,0,2.06-24.61c25.5-7,46.74-23.71,58.5-46.29a3.78,3.78,0,0,0-1.74-5.06l-.05,0a3.88,3.88,0,0,0-5.23,1.53c-10.66,20.44-29.7,35.71-52.66,42.39-.39-1.47-1.13-2.82-1.62-4.26a62.84,62.84,0,0,0-2.6-6.81c-.13-.26-.18-.55-.31-.81,46.74-13.36,68.15-65,42.75-107.55l4.92-2a3.58,3.58,0,0,0,2-4.64l-.12-.27-1.16-2.44,2.74-1.12c6,7.86,12.77,23.14,14.74,38.26a84,84,0,0,1-2.86,34.93,3.87,3.87,0,0,0,2.68,4.73,3.79,3.79,0,0,0,4.81-2.35l0,0c8-26.4,3.45-54.78-12.19-78.47l10.88-4.45a9.88,9.88,0,0,0,11.06,2.53l4.41-1.8a8.9,8.9,0,0,0,5-11.55q-.13-.33-.28-.64l-14.92-31.33a10.19,10.19,0,0,0-12.9-5l-4.41,1.8a8.81,8.81,0,0,0-4.92,11.35l-20.43,8.35-2.08-4.36a4.1,4.1,0,0,0-5.19-2l-32,13.07a3.58,3.58,0,0,0-2,4.64l.12.27a4.11,4.11,0,0,0,5.19,2l28.42-11.62,16.51,34.67-68.41,28-16.51-34.67,25.51-10.43a3.58,3.58,0,0,0,2-4.64l-.12-.27a4.11,4.11,0,0,0-5.2-2l-25.51,10.43-.51-1.08a8.79,8.79,0,0,0-11.11-4.3l-8.4,3.43a7.67,7.67,0,0,0-4.31,10q.11.28.25.55l.51,1.08c-4.81,2.43-10.08,2.64-12.17,8a9.11,9.11,0,0,0,.32,7.27c1.93,3.22,2.43,8,8,10.14,5.73,2.22,9.41-1.25,14.62-2.91l1.62,3.4c-4.81,2.43-10.08,2.64-12.17,8s1.44,8.79,2.71,12.3a10.22,10.22,0,0,0,5.58,5.12c5.73,2.22,9.42-1.25,14.62-2.91a9,9,0,0,0,5.23,5.4,8.66,8.66,0,0,0,6.4,0l8.39-3.43a7.67,7.67,0,0,0,4.31-10q-.11-.28-.25-.55l-.51-1.08,59.77-24.44c11,18,13.35,38.94,6,58.05-7.58,19.61-24.58,34.23-45.69,39.69a65.12,65.12,0,0,0-75.54-25.12,69.86,69.86,0,0,1-9.47-15.62l16.63,6.43a9.47,9.47,0,0,0,12.37-5.06l2-5.25a9.47,9.47,0,0,0-5.75-12.07l-58.76-22.73a9.47,9.47,0,0,0-12.37,5.06l-2,5.25a9.47,9.47,0,0,0,5.75,12.07L971,224.8c1.87,13.24,8.53,29.5,19.5,43.54A56.72,56.72,0,0,0,980,284l-26-10.14a3.94,3.94,0,0,0-4.26.87L934.21,290.8a3.75,3.75,0,0,0,1.57,6.07l20.27,7.84a3.73,3.73,0,1,0,2.69-6.94L943.88,292l9.88-10.26,164.71,63.72.41,14.24-143-55.3a3.73,3.73,0,1,0-2.69,6.94l148.36,57.39a3.75,3.75,0,0,0,5.25-3.43ZM1023.34,185a2.19,2.19,0,0,1-2.77-1.07l-2.39-5a1.91,1.91,0,0,1,.86-2.56l.14-.06,7-2.88,4.15,8.71Zm12.36,26a2.19,2.19,0,0,1-2.77-1.07l-2.39-5a1.91,1.91,0,0,1,.86-2.56l.14-.06,7-2.88,4.15,8.71Zm27.06-.94-8.39,3.43c-1,.4.6,1.93-24.85-50.94a.5.5,0,0,1,.23-.67l0,0c8.43-3.39,8.78-3.88,9.12-3.15l2.16,4.54c23.2,48.68,22.47,46.45,21.69,46.75Zm91.63-89,4.41-1.8a2,2,0,0,1,2.51,1l14.92,31.33a1.73,1.73,0,0,1-.79,2.31l-.13.06-4.41,1.8a2,2,0,0,1-2.51-1l-14.92-31.33a1.73,1.73,0,0,1,.72-2.34l.2-.09Zm-5.08,11.42,10,21L1139,161.65l-10-21Zm-185.21,80,2-5.25a1.79,1.79,0,0,1,2.32-1h0L1027.2,229a1.79,1.79,0,0,1,1.09,2.28l-2,5.25a1.79,1.79,0,0,1-2.32,1h0l-58.76-22.73a1.79,1.79,0,0,1-1.12-2.27l0-.09Zm31.79,50.92a89.91,89.91,0,0,1-16.41-35.13l15,5.79a77.25,77.25,0,0,0,12.08,22.49c-1,.53-1.91,1.3-2.91,1.88a60,60,0,0,0-5.28,3.4,20.1,20.1,0,0,0-2.48,1.49Zm-8.73,23.38c11.44-24.07,41.89-36.08,69.24-25.5,27.92,10.8,41.63,40.54,34.06,65.46Z" transform="translate(-52.95 -29.49)"/></svg>
